<svg width="108" height="32" viewBox="0 0 108 32" fill="none" xmlns="http://www.w3.org/2000/svg">
<g filter="url(#filter0_d)">
<rect x="4.25" y="0.25" width="99.5" height="23.5" rx="4.75" fill="white" stroke="#E5E5E5" stroke-width="0.5"/>
<path d="M14.512 16.084C14.2 16.084 14.044 15.92 14.044 15.592V7.96C14.044 7.624 14.188 7.456 14.476 7.456C14.596 7.456 14.688 7.48 14.752 7.528C14.816 7.568 14.888 7.644 14.968 7.756L19.912 14.344V7.936C19.912 7.616 20.068 7.456 20.38 7.456C20.676 7.456 20.824 7.616 20.824 7.936V15.604C20.824 15.924 20.692 16.084 20.428 16.084C20.308 16.084 20.212 16.06 20.14 16.012C20.068 15.964 19.992 15.888 19.912 15.784L14.968 9.172V15.592C14.968 15.92 14.816 16.084 14.512 16.084ZM24.8588 16.108C23.4588 16.108 22.7588 15.336 22.7588 13.792V10.576C22.7588 10.248 22.9188 10.084 23.2388 10.084C23.5668 10.084 23.7308 10.248 23.7308 10.576V13.78C23.7308 14.3 23.8348 14.684 24.0428 14.932C24.2588 15.18 24.5948 15.304 25.0508 15.304C25.5468 15.304 25.9508 15.14 26.2628 14.812C26.5748 14.476 26.7308 14.032 26.7308 13.48V10.576C26.7308 10.248 26.8948 10.084 27.2228 10.084C27.5428 10.084 27.7028 10.248 27.7028 10.576V15.58C27.7028 15.916 27.5468 16.084 27.2348 16.084C26.9148 16.084 26.7548 15.916 26.7548 15.58V15.016C26.5708 15.368 26.3108 15.64 25.9748 15.832C25.6468 16.016 25.2748 16.108 24.8588 16.108ZM30.0014 16.084C29.6814 16.084 29.5214 15.916 29.5214 15.58V10.576C29.5214 10.248 29.6774 10.084 29.9894 10.084C30.3094 10.084 30.4694 10.248 30.4694 10.576V11.164C30.6614 10.796 30.9334 10.52 31.2854 10.336C31.6374 10.152 32.0334 10.06 32.4734 10.06C33.8574 10.06 34.5494 10.828 34.5494 12.364V15.58C34.5494 15.916 34.3894 16.084 34.0694 16.084C33.7414 16.084 33.5774 15.916 33.5774 15.58V12.424C33.5774 11.88 33.4694 11.484 33.2534 11.236C33.0454 10.98 32.7094 10.852 32.2454 10.852C31.7094 10.852 31.2814 11.02 30.9614 11.356C30.6494 11.684 30.4934 12.124 30.4934 12.676V15.58C30.4934 15.916 30.3294 16.084 30.0014 16.084ZM36.8217 8.764C36.3977 8.764 36.1857 8.564 36.1857 8.164C36.1857 7.772 36.3977 7.576 36.8217 7.576C37.2457 7.576 37.4577 7.772 37.4577 8.164C37.4577 8.564 37.2457 8.764 36.8217 8.764ZM36.8217 16.06C36.5017 16.06 36.3417 15.884 36.3417 15.532V10.624C36.3417 10.28 36.5017 10.108 36.8217 10.108C37.1497 10.108 37.3137 10.28 37.3137 10.624V15.532C37.3137 15.884 37.1497 16.06 36.8217 16.06ZM41.4708 16.108C40.7828 16.108 40.2668 15.928 39.9228 15.568C39.5788 15.2 39.4068 14.672 39.4068 13.984V10.924H38.6028C38.3228 10.924 38.1827 10.796 38.1827 10.54C38.1827 10.292 38.3228 10.168 38.6028 10.168H39.4068V8.788C39.4068 8.46 39.5708 8.296 39.8988 8.296C40.2188 8.296 40.3788 8.46 40.3788 8.788V10.168H41.8908C42.1708 10.168 42.3108 10.292 42.3108 10.54C42.3108 10.796 42.1708 10.924 41.8908 10.924H40.3788V13.888C40.3788 14.344 40.4748 14.692 40.6668 14.932C40.8588 15.164 41.1708 15.28 41.6028 15.28C41.7548 15.28 41.8828 15.264 41.9868 15.232C42.0908 15.2 42.1828 15.184 42.2628 15.184C42.3348 15.176 42.3948 15.2 42.4428 15.256C42.4908 15.312 42.5148 15.408 42.5148 15.544C42.5148 15.64 42.4948 15.728 42.4548 15.808C42.4228 15.888 42.3628 15.944 42.2748 15.976C42.1788 16.008 42.0508 16.036 41.8908 16.06C41.7388 16.092 41.5988 16.108 41.4708 16.108ZM45.6915 16.108C45.1235 16.108 44.6315 15.984 44.2155 15.736C43.7995 15.488 43.4755 15.14 43.2435 14.692C43.0195 14.236 42.9075 13.7 42.9075 13.084C42.9075 12.468 43.0195 11.936 43.2435 11.488C43.4755 11.032 43.7995 10.68 44.2155 10.432C44.6315 10.184 45.1235 10.06 45.6915 10.06C46.2515 10.06 46.7395 10.184 47.1555 10.432C47.5795 10.68 47.9035 11.032 48.1275 11.488C48.3595 11.936 48.4755 12.468 48.4755 13.084C48.4755 13.7 48.3595 14.236 48.1275 14.692C47.9035 15.14 47.5795 15.488 47.1555 15.736C46.7395 15.984 46.2515 16.108 45.6915 16.108ZM45.6915 15.328C46.2355 15.328 46.6715 15.136 46.9995 14.752C47.3275 14.36 47.4915 13.804 47.4915 13.084C47.4915 12.356 47.3275 11.8 46.9995 11.416C46.6715 11.032 46.2355 10.84 45.6915 10.84C45.1395 10.84 44.6995 11.032 44.3715 11.416C44.0515 11.8 43.8915 12.356 43.8915 13.084C43.8915 13.804 44.0515 14.36 44.3715 14.752C44.6995 15.136 45.1395 15.328 45.6915 15.328Z" fill="#383838"/>
<path d="M97 10.5773L96.4227 10L93 13.4227L89.5773 10L89 10.5773L93 14.5773L97 10.5773Z" fill="#898B96" stroke="#898B96" stroke-width="0.2"/>
</g>
<defs>
<filter id="filter0_d" x="0" y="0" width="108" height="32" filterUnits="userSpaceOnUse" color-interpolation-filters="sRGB">
<feFlood flood-opacity="0" result="BackgroundImageFix"/>
<feColorMatrix in="SourceAlpha" type="matrix" values="0 0 0 0 0 0 0 0 0 0 0 0 0 0 0 0 0 0 127 0" result="hardAlpha"/>
<feOffset dy="4"/>
<feGaussianBlur stdDeviation="2"/>
<feColorMatrix type="matrix" values="0 0 0 0 0.898039 0 0 0 0 0.898039 0 0 0 0 0.898039 0 0 0 0.4 0"/>
<feBlend mode="normal" in2="BackgroundImageFix" result="effect1_dropShadow"/>
<feBlend mode="normal" in="SourceGraphic" in2="effect1_dropShadow" result="shape"/>
</filter>
</defs>
</svg>
