<svg width="80" height="24" viewBox="0 0 80 24" fill="none" xmlns="http://www.w3.org/2000/svg">
<rect x="0.25" y="0.25" width="79.5" height="23.5" rx="4.75" fill="white" stroke="#E5E5E5" stroke-width="0.5"/>
<path d="M34.86 16C34.556 16 34.404 15.856 34.404 15.568C34.404 15.296 34.556 15.16 34.86 15.16H36.42V8.692L35.196 9.508C35.068 9.588 34.948 9.612 34.836 9.58C34.732 9.54 34.652 9.472 34.596 9.376C34.54 9.28 34.52 9.176 34.536 9.064C34.56 8.952 34.636 8.852 34.764 8.764L36.42 7.672C36.524 7.608 36.624 7.556 36.72 7.516C36.816 7.476 36.912 7.456 37.008 7.456C37.12 7.456 37.212 7.492 37.284 7.564C37.364 7.628 37.404 7.732 37.404 7.876V15.16H38.844C39.148 15.16 39.3 15.296 39.3 15.568C39.3 15.856 39.148 16 38.844 16H34.86ZM42.0553 16C41.7513 16 41.5993 15.856 41.5993 15.568C41.5993 15.296 41.7513 15.16 42.0553 15.16H43.6153V8.692L42.3913 9.508C42.2633 9.588 42.1433 9.612 42.0313 9.58C41.9273 9.54 41.8473 9.472 41.7913 9.376C41.7353 9.28 41.7153 9.176 41.7313 9.064C41.7553 8.952 41.8313 8.852 41.9593 8.764L43.6153 7.672C43.7193 7.608 43.8193 7.556 43.9153 7.516C44.0113 7.476 44.1073 7.456 44.2033 7.456C44.3153 7.456 44.4073 7.492 44.4793 7.564C44.5593 7.628 44.5993 7.732 44.5993 7.876V15.16H46.0393C46.3433 15.16 46.4953 15.296 46.4953 15.568C46.4953 15.856 46.3433 16 46.0393 16H42.0553Z" fill="#383838"/>
<path d="M56.25 0.25H75C77.6234 0.25 79.75 2.37665 79.75 5V19C79.75 21.6234 77.6234 23.75 75 23.75H56.25V0.25Z" fill="white" stroke="#E5E5E5" stroke-width="0.5"/>
<path d="M68 7.625C68.145 7.625 68.2841 7.68262 68.3867 7.78518C68.4893 7.88774 68.5469 8.02683 68.5469 8.17188V11.4531H71.8281C71.9732 11.4531 72.1123 11.5107 72.2148 11.6133C72.3174 11.7159 72.375 11.855 72.375 12C72.375 12.145 72.3174 12.2841 72.2148 12.3867C72.1123 12.4893 71.9732 12.5469 71.8281 12.5469H68.5469V15.8281C68.5469 15.9732 68.4893 16.1123 68.3867 16.2148C68.2841 16.3174 68.145 16.375 68 16.375C67.855 16.375 67.7159 16.3174 67.6133 16.2148C67.5107 16.1123 67.4531 15.9732 67.4531 15.8281V12.5469H64.1719C64.0268 12.5469 63.8877 12.4893 63.7852 12.3867C63.6826 12.2841 63.625 12.145 63.625 12C63.625 11.855 63.6826 11.7159 63.7852 11.6133C63.8877 11.5107 64.0268 11.4531 64.1719 11.4531H67.4531V8.17188C67.4531 8.02683 67.5107 7.88774 67.6133 7.78518C67.7159 7.68262 67.855 7.625 68 7.625Z" fill="#898B96"/>
<path d="M0.25 5C0.25 2.37665 2.37665 0.25 5 0.25H23.75V23.75H5C2.37665 23.75 0.25 21.6234 0.25 19V5Z" fill="white" stroke="#E5E5E5" stroke-width="0.5"/>
<path d="M8.25 12H15.75" stroke="#898B96" stroke-linecap="round"/>
</svg>
