<svg width="575" height="32" viewBox="0 0 575 32" fill="none" xmlns="http://www.w3.org/2000/svg">
<rect x="116.25" y="0.25" width="79.5" height="23.5" rx="4.75" fill="white" stroke="#E5E5E5" stroke-width="0.5"/>
<path d="M150.86 16C150.556 16 150.404 15.856 150.404 15.568C150.404 15.296 150.556 15.16 150.86 15.16H152.42V8.692L151.196 9.508C151.068 9.588 150.948 9.612 150.836 9.58C150.732 9.54 150.652 9.472 150.596 9.376C150.54 9.28 150.52 9.176 150.536 9.064C150.56 8.952 150.636 8.852 150.764 8.764L152.42 7.672C152.524 7.608 152.624 7.556 152.72 7.516C152.816 7.476 152.912 7.456 153.008 7.456C153.12 7.456 153.212 7.492 153.284 7.564C153.364 7.628 153.404 7.732 153.404 7.876V15.16H154.844C155.148 15.16 155.3 15.296 155.3 15.568C155.3 15.856 155.148 16 154.844 16H150.86ZM158.055 16C157.751 16 157.599 15.856 157.599 15.568C157.599 15.296 157.751 15.16 158.055 15.16H159.615V8.692L158.391 9.508C158.263 9.588 158.143 9.612 158.031 9.58C157.927 9.54 157.847 9.472 157.791 9.376C157.735 9.28 157.715 9.176 157.731 9.064C157.755 8.952 157.831 8.852 157.959 8.764L159.615 7.672C159.719 7.608 159.819 7.556 159.915 7.516C160.011 7.476 160.107 7.456 160.203 7.456C160.315 7.456 160.407 7.492 160.479 7.564C160.559 7.628 160.599 7.732 160.599 7.876V15.16H162.039C162.343 15.16 162.495 15.296 162.495 15.568C162.495 15.856 162.343 16 162.039 16H158.055Z" fill="#383838"/>
<path d="M172.25 0.25H191C193.623 0.25 195.75 2.37665 195.75 5V19C195.75 21.6234 193.623 23.75 191 23.75H172.25V0.25Z" fill="white" stroke="#E5E5E5" stroke-width="0.5"/>
<path d="M184 7.625C184.145 7.625 184.284 7.68262 184.387 7.78518C184.489 7.88774 184.547 8.02683 184.547 8.17188V11.4531H187.828C187.973 11.4531 188.112 11.5107 188.215 11.6133C188.317 11.7159 188.375 11.855 188.375 12C188.375 12.145 188.317 12.2841 188.215 12.3867C188.112 12.4893 187.973 12.5469 187.828 12.5469H184.547V15.8281C184.547 15.9732 184.489 16.1123 184.387 16.2148C184.284 16.3174 184.145 16.375 184 16.375C183.855 16.375 183.716 16.3174 183.613 16.2148C183.511 16.1123 183.453 15.9732 183.453 15.8281V12.5469H180.172C180.027 12.5469 179.888 12.4893 179.785 12.3867C179.683 12.2841 179.625 12.145 179.625 12C179.625 11.855 179.683 11.7159 179.785 11.6133C179.888 11.5107 180.027 11.4531 180.172 11.4531H183.453V8.17188C183.453 8.02683 183.511 7.88774 183.613 7.78518C183.716 7.68262 183.855 7.625 184 7.625Z" fill="#898B96"/>
<path d="M116.25 5C116.25 2.37665 118.377 0.25 121 0.25H139.75V23.75H121C118.377 23.75 116.25 21.6234 116.25 19V5Z" fill="white" stroke="#E5E5E5" stroke-width="0.5"/>
<path d="M124.25 12H131.75" stroke="#898B96" stroke-linecap="round"/>
<g filter="url(#filter0_d)">
<rect x="4.25" y="0.25" width="99.5" height="23.5" rx="4.75" fill="white" stroke="#E5E5E5" stroke-width="0.5"/>
<path d="M14.512 16.084C14.2 16.084 14.044 15.92 14.044 15.592V7.96C14.044 7.624 14.188 7.456 14.476 7.456C14.596 7.456 14.688 7.48 14.752 7.528C14.816 7.568 14.888 7.644 14.968 7.756L19.912 14.344V7.936C19.912 7.616 20.068 7.456 20.38 7.456C20.676 7.456 20.824 7.616 20.824 7.936V15.604C20.824 15.924 20.692 16.084 20.428 16.084C20.308 16.084 20.212 16.06 20.14 16.012C20.068 15.964 19.992 15.888 19.912 15.784L14.968 9.172V15.592C14.968 15.92 14.816 16.084 14.512 16.084ZM24.8588 16.108C23.4588 16.108 22.7588 15.336 22.7588 13.792V10.576C22.7588 10.248 22.9188 10.084 23.2388 10.084C23.5668 10.084 23.7308 10.248 23.7308 10.576V13.78C23.7308 14.3 23.8348 14.684 24.0428 14.932C24.2588 15.18 24.5948 15.304 25.0508 15.304C25.5468 15.304 25.9508 15.14 26.2628 14.812C26.5748 14.476 26.7308 14.032 26.7308 13.48V10.576C26.7308 10.248 26.8948 10.084 27.2228 10.084C27.5428 10.084 27.7028 10.248 27.7028 10.576V15.58C27.7028 15.916 27.5468 16.084 27.2348 16.084C26.9148 16.084 26.7548 15.916 26.7548 15.58V15.016C26.5708 15.368 26.3108 15.64 25.9748 15.832C25.6468 16.016 25.2748 16.108 24.8588 16.108ZM30.0014 16.084C29.6814 16.084 29.5214 15.916 29.5214 15.58V10.576C29.5214 10.248 29.6774 10.084 29.9894 10.084C30.3094 10.084 30.4694 10.248 30.4694 10.576V11.164C30.6614 10.796 30.9334 10.52 31.2854 10.336C31.6374 10.152 32.0334 10.06 32.4734 10.06C33.8574 10.06 34.5494 10.828 34.5494 12.364V15.58C34.5494 15.916 34.3894 16.084 34.0694 16.084C33.7414 16.084 33.5774 15.916 33.5774 15.58V12.424C33.5774 11.88 33.4694 11.484 33.2534 11.236C33.0454 10.98 32.7094 10.852 32.2454 10.852C31.7094 10.852 31.2814 11.02 30.9614 11.356C30.6494 11.684 30.4934 12.124 30.4934 12.676V15.58C30.4934 15.916 30.3294 16.084 30.0014 16.084ZM36.8217 8.764C36.3977 8.764 36.1857 8.564 36.1857 8.164C36.1857 7.772 36.3977 7.576 36.8217 7.576C37.2457 7.576 37.4577 7.772 37.4577 8.164C37.4577 8.564 37.2457 8.764 36.8217 8.764ZM36.8217 16.06C36.5017 16.06 36.3417 15.884 36.3417 15.532V10.624C36.3417 10.28 36.5017 10.108 36.8217 10.108C37.1497 10.108 37.3137 10.28 37.3137 10.624V15.532C37.3137 15.884 37.1497 16.06 36.8217 16.06ZM41.4708 16.108C40.7828 16.108 40.2668 15.928 39.9228 15.568C39.5788 15.2 39.4068 14.672 39.4068 13.984V10.924H38.6028C38.3228 10.924 38.1827 10.796 38.1827 10.54C38.1827 10.292 38.3228 10.168 38.6028 10.168H39.4068V8.788C39.4068 8.46 39.5708 8.296 39.8988 8.296C40.2188 8.296 40.3788 8.46 40.3788 8.788V10.168H41.8908C42.1708 10.168 42.3108 10.292 42.3108 10.54C42.3108 10.796 42.1708 10.924 41.8908 10.924H40.3788V13.888C40.3788 14.344 40.4748 14.692 40.6668 14.932C40.8588 15.164 41.1708 15.28 41.6028 15.28C41.7548 15.28 41.8828 15.264 41.9868 15.232C42.0908 15.2 42.1828 15.184 42.2628 15.184C42.3348 15.176 42.3948 15.2 42.4428 15.256C42.4908 15.312 42.5148 15.408 42.5148 15.544C42.5148 15.64 42.4948 15.728 42.4548 15.808C42.4228 15.888 42.3628 15.944 42.2748 15.976C42.1788 16.008 42.0508 16.036 41.8908 16.06C41.7388 16.092 41.5988 16.108 41.4708 16.108ZM45.6915 16.108C45.1235 16.108 44.6315 15.984 44.2155 15.736C43.7995 15.488 43.4755 15.14 43.2435 14.692C43.0195 14.236 42.9075 13.7 42.9075 13.084C42.9075 12.468 43.0195 11.936 43.2435 11.488C43.4755 11.032 43.7995 10.68 44.2155 10.432C44.6315 10.184 45.1235 10.06 45.6915 10.06C46.2515 10.06 46.7395 10.184 47.1555 10.432C47.5795 10.68 47.9035 11.032 48.1275 11.488C48.3595 11.936 48.4755 12.468 48.4755 13.084C48.4755 13.7 48.3595 14.236 48.1275 14.692C47.9035 15.14 47.5795 15.488 47.1555 15.736C46.7395 15.984 46.2515 16.108 45.6915 16.108ZM45.6915 15.328C46.2355 15.328 46.6715 15.136 46.9995 14.752C47.3275 14.36 47.4915 13.804 47.4915 13.084C47.4915 12.356 47.3275 11.8 46.9995 11.416C46.6715 11.032 46.2355 10.84 45.6915 10.84C45.1395 10.84 44.6995 11.032 44.3715 11.416C44.0515 11.8 43.8915 12.356 43.8915 13.084C43.8915 13.804 44.0515 14.36 44.3715 14.752C44.6995 15.136 45.1395 15.328 45.6915 15.328Z" fill="#383838"/>
<path d="M97 10.5773L96.4227 10L93 13.4227L89.5773 10L89 10.5773L93 14.5773L97 10.5773Z" fill="#898B96" stroke="#898B96" stroke-width="0.2"/>
</g>
<path d="M357.167 17H368.833M355.5 7H370.5H355.5ZM358.833 12H367.167H358.833Z" stroke="#C4C4C4" stroke-width="1.66667" stroke-linecap="round"/>
<path d="M330.5 17H343M330.5 7H345.5H330.5ZM330.5 12H338.833H330.5Z" stroke="#383838" stroke-width="1.66667" stroke-linecap="round"/>
<path d="M383 17H395.5M380.5 7H395.5H380.5ZM387.167 12H395.5H387.167Z" stroke="#C4C4C4" stroke-width="1.66667" stroke-linecap="round"/>
<path d="M520.584 16C520.224 16 520.044 15.82 520.044 15.46V8.08C520.044 7.72 520.224 7.54 520.584 7.54H525.048C525.328 7.54 525.468 7.676 525.468 7.948C525.468 8.228 525.328 8.368 525.048 8.368H521.004V11.296H524.796C525.076 11.296 525.216 11.432 525.216 11.704C525.216 11.984 525.076 12.124 524.796 12.124H521.004V15.172H525.048C525.328 15.172 525.468 15.308 525.468 15.58C525.468 15.86 525.328 16 525.048 16H520.584ZM529.081 16.108C528.561 16.108 528.105 15.984 527.713 15.736C527.329 15.488 527.029 15.14 526.813 14.692C526.605 14.236 526.501 13.7 526.501 13.084C526.501 12.46 526.605 11.924 526.813 11.476C527.029 11.02 527.329 10.672 527.713 10.432C528.105 10.184 528.561 10.06 529.081 10.06C529.537 10.06 529.937 10.16 530.281 10.36C530.633 10.56 530.893 10.836 531.061 11.188V7.948C531.061 7.62 531.225 7.456 531.553 7.456C531.873 7.456 532.033 7.62 532.033 7.948V15.58C532.033 15.916 531.873 16.084 531.553 16.084C531.233 16.084 531.073 15.916 531.073 15.58V14.956C530.897 15.316 530.633 15.6 530.281 15.808C529.937 16.008 529.537 16.108 529.081 16.108ZM529.285 15.328C529.829 15.328 530.265 15.136 530.593 14.752C530.921 14.36 531.085 13.804 531.085 13.084C531.085 12.356 530.921 11.8 530.593 11.416C530.265 11.032 529.829 10.84 529.285 10.84C528.733 10.84 528.293 11.032 527.965 11.416C527.645 11.8 527.485 12.356 527.485 13.084C527.485 13.804 527.645 14.36 527.965 14.752C528.293 15.136 528.733 15.328 529.285 15.328ZM534.337 8.764C533.913 8.764 533.701 8.564 533.701 8.164C533.701 7.772 533.913 7.576 534.337 7.576C534.761 7.576 534.973 7.772 534.973 8.164C534.973 8.564 534.761 8.764 534.337 8.764ZM534.337 16.06C534.017 16.06 533.857 15.884 533.857 15.532V10.624C533.857 10.28 534.017 10.108 534.337 10.108C534.665 10.108 534.829 10.28 534.829 10.624V15.532C534.829 15.884 534.665 16.06 534.337 16.06ZM538.986 16.108C538.298 16.108 537.782 15.928 537.438 15.568C537.094 15.2 536.922 14.672 536.922 13.984V10.924H536.118C535.838 10.924 535.698 10.796 535.698 10.54C535.698 10.292 535.838 10.168 536.118 10.168H536.922V8.788C536.922 8.46 537.086 8.296 537.414 8.296C537.734 8.296 537.894 8.46 537.894 8.788V10.168H539.406C539.686 10.168 539.826 10.292 539.826 10.54C539.826 10.796 539.686 10.924 539.406 10.924H537.894V13.888C537.894 14.344 537.99 14.692 538.182 14.932C538.374 15.164 538.686 15.28 539.118 15.28C539.27 15.28 539.398 15.264 539.502 15.232C539.606 15.2 539.698 15.184 539.778 15.184C539.85 15.176 539.91 15.2 539.958 15.256C540.006 15.312 540.03 15.408 540.03 15.544C540.03 15.64 540.01 15.728 539.97 15.808C539.938 15.888 539.878 15.944 539.79 15.976C539.694 16.008 539.566 16.036 539.406 16.06C539.254 16.092 539.114 16.108 538.986 16.108ZM544.559 16.084C544.231 16.084 544.067 15.912 544.067 15.568V8.044C544.067 7.708 544.235 7.54 544.571 7.54H547.415C548.327 7.54 549.023 7.76 549.503 8.2C549.991 8.64 550.235 9.268 550.235 10.084C550.235 10.892 549.991 11.52 549.503 11.968C549.023 12.408 548.327 12.628 547.415 12.628H545.051V15.568C545.051 15.912 544.887 16.084 544.559 16.084ZM545.051 11.8H547.295C548.607 11.8 549.263 11.228 549.263 10.084C549.263 8.932 548.607 8.356 547.295 8.356H545.051V11.8ZM553.072 16.108C552.672 16.108 552.312 16.032 551.992 15.88C551.68 15.72 551.432 15.504 551.248 15.232C551.064 14.96 550.972 14.656 550.972 14.32C550.972 13.896 551.08 13.56 551.296 13.312C551.52 13.064 551.884 12.888 552.388 12.784C552.9 12.672 553.596 12.616 554.476 12.616H554.86V12.244C554.86 11.748 554.756 11.392 554.548 11.176C554.348 10.952 554.024 10.84 553.576 10.84C553.296 10.84 553.012 10.876 552.724 10.948C552.444 11.02 552.152 11.136 551.848 11.296C551.712 11.368 551.596 11.384 551.5 11.344C551.412 11.296 551.348 11.224 551.308 11.128C551.276 11.024 551.276 10.92 551.308 10.816C551.348 10.704 551.428 10.62 551.548 10.564C551.892 10.388 552.236 10.26 552.58 10.18C552.932 10.1 553.264 10.06 553.576 10.06C554.328 10.06 554.884 10.244 555.244 10.612C555.612 10.98 555.796 11.552 555.796 12.328V15.58C555.796 15.916 555.648 16.084 555.352 16.084C555.04 16.084 554.884 15.916 554.884 15.58V14.992C554.732 15.336 554.496 15.608 554.176 15.808C553.864 16.008 553.496 16.108 553.072 16.108ZM553.228 15.376C553.708 15.376 554.1 15.212 554.404 14.884C554.708 14.548 554.86 14.124 554.86 13.612V13.252H554.488C553.84 13.252 553.328 13.284 552.952 13.348C552.584 13.404 552.324 13.508 552.172 13.66C552.028 13.804 551.956 14.004 551.956 14.26C551.956 14.588 552.068 14.856 552.292 15.064C552.524 15.272 552.836 15.376 553.228 15.376ZM558.08 18.244C557.76 18.244 557.6 18.08 557.6 17.752V10.576C557.6 10.248 557.756 10.084 558.068 10.084C558.396 10.084 558.56 10.248 558.56 10.576V11.2C558.728 10.848 558.988 10.572 559.34 10.372C559.692 10.164 560.096 10.06 560.552 10.06C561.072 10.06 561.524 10.184 561.908 10.432C562.3 10.672 562.6 11.02 562.808 11.476C563.024 11.924 563.132 12.46 563.132 13.084C563.132 13.7 563.024 14.236 562.808 14.692C562.6 15.14 562.3 15.488 561.908 15.736C561.524 15.984 561.072 16.108 560.552 16.108C560.104 16.108 559.704 16.008 559.352 15.808C559 15.608 558.74 15.332 558.572 14.98V17.752C558.572 18.08 558.408 18.244 558.08 18.244ZM560.348 15.328C560.892 15.328 561.328 15.136 561.656 14.752C561.984 14.36 562.148 13.804 562.148 13.084C562.148 12.356 561.984 11.8 561.656 11.416C561.328 11.032 560.892 10.84 560.348 10.84C559.804 10.84 559.368 11.032 559.04 11.416C558.712 11.8 558.548 12.356 558.548 13.084C558.548 13.804 558.712 14.36 559.04 14.752C559.368 15.136 559.804 15.328 560.348 15.328ZM567.224 16.108C566.304 16.108 565.576 15.84 565.04 15.304C564.504 14.76 564.236 14.024 564.236 13.096C564.236 12.496 564.356 11.968 564.596 11.512C564.836 11.048 565.164 10.692 565.58 10.444C566.004 10.188 566.492 10.06 567.044 10.06C567.836 10.06 568.456 10.316 568.904 10.828C569.352 11.332 569.576 12.028 569.576 12.916C569.576 13.164 569.436 13.288 569.156 13.288H565.184C565.216 13.952 565.408 14.46 565.76 14.812C566.112 15.156 566.6 15.328 567.224 15.328C567.488 15.328 567.756 15.296 568.028 15.232C568.3 15.16 568.564 15.036 568.82 14.86C569.004 14.74 569.156 14.716 569.276 14.788C569.404 14.86 569.468 14.972 569.468 15.124C569.476 15.268 569.396 15.396 569.228 15.508C568.964 15.7 568.648 15.848 568.28 15.952C567.92 16.056 567.568 16.108 567.224 16.108ZM567.068 10.78C566.516 10.78 566.08 10.952 565.76 11.296C565.44 11.64 565.252 12.092 565.196 12.652H568.736C568.712 12.06 568.556 11.6 568.268 11.272C567.988 10.944 567.588 10.78 567.068 10.78ZM571.474 16.084C571.146 16.084 570.982 15.916 570.982 15.58V10.576C570.982 10.248 571.138 10.084 571.45 10.084C571.77 10.084 571.93 10.248 571.93 10.576V11.212C572.09 10.844 572.338 10.564 572.674 10.372C573.01 10.172 573.41 10.064 573.874 10.048C574.13 10.024 574.266 10.152 574.282 10.432C574.306 10.712 574.162 10.868 573.85 10.9L573.658 10.924C573.106 10.972 572.686 11.148 572.398 11.452C572.11 11.748 571.966 12.156 571.966 12.676V15.58C571.966 15.916 571.802 16.084 571.474 16.084Z" fill="#898B96"/>
<g clip-path="url(#clip0)">
<path d="M496.333 5.33341V18.6667C496.333 19.1088 496.509 19.5327 496.821 19.8453C497.134 20.1578 497.558 20.3334 498 20.3334H508C508.442 20.3334 508.866 20.1578 509.178 19.8453C509.491 19.5327 509.666 19.1088 509.666 18.6667V8.95175C509.666 8.72971 509.622 8.50992 509.536 8.30529C509.45 8.10065 509.323 7.91528 509.165 7.76008L505.465 4.14175C505.153 3.8373 504.735 3.6668 504.3 3.66675H498C497.558 3.66675 497.134 3.84234 496.821 4.1549C496.509 4.46746 496.333 4.89139 496.333 5.33341V5.33341Z" stroke="#898B96" stroke-linecap="round" stroke-linejoin="round"/>
<path d="M504.666 3.66675V7.00008C504.666 7.44211 504.842 7.86603 505.155 8.17859C505.467 8.49115 505.891 8.66675 506.333 8.66675H509.666" stroke="#898B96" stroke-linejoin="round"/>
<path d="M504 13.5L504.5 12L505.5 10.5L506.5 9.5L507.5 8.5L509 7L510.5 6L513 4L511 7.5L508.5 11.5L506.5 14L505 14.5H504V13.5Z" fill="white"/>
<path d="M513.853 3.11451C513.931 3.18142 513.986 3.2719 514.009 3.37242C514.031 3.47294 514.021 3.57812 513.979 3.67223C512.518 6.9479 509.449 11.4746 507.203 13.8335C506.574 14.4934 505.797 14.9953 504.937 15.2985C504.92 15.5153 504.88 15.8123 504.784 16.1274C504.592 16.7568 504.147 17.5399 503.153 17.7891C502.19 18.0184 501.193 18.0612 500.214 17.9152C500.032 17.8864 499.852 17.8433 499.677 17.7863C499.515 17.7369 499.364 17.6568 499.232 17.5504C499.145 17.4764 499.078 17.3819 499.037 17.2753C498.986 17.1386 498.988 16.988 499.041 16.8523C499.132 16.6183 499.343 16.4894 499.481 16.4206C499.857 16.2325 500.078 15.988 500.309 15.6318C500.4 15.4942 500.485 15.3481 500.583 15.181L500.695 14.9919C500.839 14.7484 501.006 14.4762 501.216 14.1821C501.721 13.4763 502.363 13.2987 502.884 13.3264C503.004 13.3331 503.116 13.3503 503.216 13.3722C503.275 13.208 503.352 13.0093 503.443 12.7916C503.693 12.2004 504.072 11.4364 504.577 10.8157C506.655 8.26581 510.479 4.88891 513.284 3.07631C513.37 3.02058 513.472 2.99419 513.575 3.00107C513.677 3.00795 513.775 3.04774 513.853 3.11451ZM503.233 14.3759C503.107 14.3208 502.971 14.2885 502.833 14.2804C502.598 14.268 502.286 14.3282 501.994 14.7379C501.806 15.0005 501.655 15.2459 501.516 15.4799L501.416 15.649C501.315 15.8218 501.213 15.9947 501.11 16.1532C500.917 16.4666 500.672 16.7446 500.385 16.9755C501.044 17.0824 502.042 17.0815 502.922 16.8609C503.456 16.7281 503.727 16.3175 503.87 15.8486C503.939 15.6156 503.98 15.3751 503.991 15.1323L503.233 14.3759ZM504.609 14.4008C504.723 14.3626 504.873 14.3053 505.046 14.226C505.596 13.9708 506.093 13.6144 506.512 13.1755C508.326 11.2693 510.725 7.85611 512.292 4.93284C509.818 6.77314 506.976 9.38317 505.318 11.4192C504.896 11.9378 504.559 12.6063 504.323 13.1631C504.207 13.4381 504.119 13.6788 504.06 13.8507V13.8516L504.61 14.4008H504.609ZM499.859 17.304L499.866 17.2992C499.864 17.3008 499.862 17.3021 499.859 17.303V17.304ZM503.28 14.3979L503.282 14.3989H503.28V14.3979Z" fill="#898B96"/>
</g>
<line x1="316.25" y1="1.09279e-08" x2="316.25" y2="24" stroke="#E5E5E5" stroke-width="0.5"/>
<line x1="410.25" y1="1.09279e-08" x2="410.25" y2="24" stroke="#E5E5E5" stroke-width="0.5"/>
<path d="M220.315 19.5C223.474 19.5 225.433 17.8695 225.433 15.2655C225.433 13.3065 223.957 11.841 221.947 11.6865V11.604C222.717 11.4881 223.42 11.1009 223.929 10.5123C224.438 9.92368 224.721 9.1724 224.725 8.39398C224.725 6.12898 222.982 4.70398 220.204 4.70398H213.764V19.5H220.315ZM216.862 7.01098H219.406C220.85 7.01098 221.681 7.68748 221.681 8.87698C221.681 10.128 220.738 10.857 219.086 10.857H216.862V7.00948V7.01098ZM216.862 17.193V12.897H219.457C221.282 12.897 222.277 13.635 222.277 15.0195C222.277 16.434 221.312 17.193 219.529 17.193H216.86H216.862Z" fill="#383838"/>
<path d="M255.987 17.511L258.295 6.68252C258.48 5.79002 258.664 5.61752 260.316 5.47202L260.481 4.69202H254.817L254.652 5.47202C256.242 5.61602 256.344 5.79002 256.159 6.68252L253.855 17.511C253.671 18.4035 253.486 18.576 251.836 18.72L251.671 19.5H257.332L257.497 18.72C255.907 18.5775 255.804 18.4035 255.988 17.511H255.987Z" fill="#C4C4C4"/>
<path d="M287.97 4.70398H286.125V14.31C286.125 17.4675 288.329 19.7445 292 19.7445C295.67 19.7445 297.875 17.4675 297.875 14.31V4.70398H296.031V14.1885C296.031 16.4235 294.564 18.0435 292 18.0435C289.437 18.0435 287.97 16.4235 287.97 14.1885V4.70398ZM298.75 22.5H285.25V21H298.75V22.5Z" fill="#C4C4C4"/>
<path d="M431.531 8.25H428C426.807 8.25 425.662 8.72411 424.818 9.56802C423.974 10.4119 423.5 11.5565 423.5 12.75C423.5 13.9435 423.974 15.0881 424.818 15.932C425.662 16.7759 426.807 17.25 428 17.25H432.5C433.22 17.2504 433.93 17.0779 434.569 16.7471C435.209 16.4164 435.76 15.9369 436.176 15.349C436.592 14.7612 436.861 14.0821 436.96 13.3688C437.059 12.6555 436.985 11.9289 436.745 11.25H435.5C435.371 11.25 435.245 11.265 435.125 11.2965C435.378 11.7533 435.507 12.2681 435.5 12.7902C435.493 13.3123 435.35 13.8235 435.085 14.2733C434.82 14.7232 434.442 15.096 433.989 15.355C433.535 15.6139 433.022 15.7501 432.5 15.75H428C427.204 15.75 426.441 15.4339 425.879 14.8713C425.316 14.3087 425 13.5456 425 12.75C425 11.9544 425.316 11.1913 425.879 10.6287C426.441 10.0661 427.204 9.75 428 9.75H430.302C430.629 9.186 431.045 8.679 431.533 8.25H431.531Z" fill="#898B96"/>
<path d="M435.5 8.25C434.78 8.24962 434.07 8.42207 433.43 8.75285C432.791 9.08364 432.24 9.5631 431.824 10.151C431.408 10.7388 431.139 11.4179 431.04 12.1312C430.941 12.8445 431.015 13.5711 431.255 14.25H432.902C432.638 13.7939 432.5 13.2766 432.5 12.75C432.5 12.2234 432.638 11.7061 432.902 11.25C433.165 10.794 433.544 10.4153 434 10.152C434.456 9.88864 434.973 9.75001 435.5 9.75H440C440.795 9.75 441.559 10.0661 442.121 10.6287C442.684 11.1913 443 11.9544 443 12.75C443 13.5457 442.684 14.3087 442.121 14.8713C441.559 15.4339 440.795 15.75 440 15.75H437.697C437.371 16.3131 436.956 16.8197 436.467 17.25H440C440.591 17.25 441.176 17.1336 441.722 16.9075C442.268 16.6813 442.764 16.3498 443.182 15.932C443.6 15.5141 443.931 15.018 444.157 14.4721C444.383 13.9261 444.5 13.3409 444.5 12.75C444.5 12.1591 444.383 11.5739 444.157 11.0279C443.931 10.482 443.6 9.98588 443.182 9.56802C442.764 9.15016 442.268 8.81869 441.722 8.59254C441.176 8.3664 440.591 8.25 440 8.25H435.5Z" fill="#898B96"/>
<path d="M467.75 3V8.10375L463.33 5.5515L461.08 9.45L465.5 12L461.08 14.55L463.33 18.4485L467.75 15.8962V21H472.25V15.8962L476.67 18.4485L478.92 14.55L474.5 12L478.92 9.45L476.67 5.5515L472.25 8.10375V3H467.75ZM469.25 4.5H470.75V10.7025L476.12 7.60125L476.87 8.89875L471.5 12L476.87 15.1012L476.12 16.3988L470.75 13.2975V19.5H469.25V13.2975L463.88 16.3988L463.13 15.1012L468.5 12L463.13 8.89875L463.88 7.60125L469.25 10.7025V4.5Z" fill="#898B96"/>
<defs>
<filter id="filter0_d" x="0" y="0" width="108" height="32" filterUnits="userSpaceOnUse" color-interpolation-filters="sRGB">
<feFlood flood-opacity="0" result="BackgroundImageFix"/>
<feColorMatrix in="SourceAlpha" type="matrix" values="0 0 0 0 0 0 0 0 0 0 0 0 0 0 0 0 0 0 127 0" result="hardAlpha"/>
<feOffset dy="4"/>
<feGaussianBlur stdDeviation="2"/>
<feColorMatrix type="matrix" values="0 0 0 0 0.898039 0 0 0 0 0.898039 0 0 0 0 0.898039 0 0 0 0.4 0"/>
<feBlend mode="normal" in2="BackgroundImageFix" result="effect1_dropShadow"/>
<feBlend mode="normal" in="SourceGraphic" in2="effect1_dropShadow" result="shape"/>
</filter>
<clipPath id="clip0">
<rect width="20" height="20" fill="white" transform="translate(494 2)"/>
</clipPath>
</defs>
</svg>
