<svg width="40" height="40" viewBox="0 0 40 40" fill="none" xmlns="http://www.w3.org/2000/svg">
<g filter="url(#filter0_d)">
<circle cx="20" cy="16" r="16" fill="white"/>
<circle cx="20" cy="16" r="15.5" stroke="#E5E5E5"/>
</g>
<path d="M21.8299 23C21.6805 23.0005 21.5329 22.9676 21.3979 22.9035C21.263 22.8395 21.144 22.7461 21.0499 22.63L16.2199 16.63C16.0728 16.4511 15.9924 16.2267 15.9924 15.995C15.9924 15.7634 16.0728 15.539 16.2199 15.36L21.2199 9.36003C21.3897 9.15581 21.6336 9.02739 21.898 9.00301C22.1624 8.97863 22.4257 9.06029 22.6299 9.23003C22.8341 9.39977 22.9626 9.64368 22.9869 9.90811C23.0113 10.1725 22.9297 10.4358 22.7599 10.64L18.2899 16L22.6099 21.36C22.7322 21.5068 22.8099 21.6856 22.8338 21.8751C22.8576 22.0647 22.8267 22.2571 22.7447 22.4296C22.6626 22.6021 22.5328 22.7475 22.3707 22.8486C22.2086 22.9497 22.021 23.0023 21.8299 23Z" fill="#898B96"/>
<defs>
<filter id="filter0_d" x="0" y="0" width="40" height="40" filterUnits="userSpaceOnUse" color-interpolation-filters="sRGB">
<feFlood flood-opacity="0" result="BackgroundImageFix"/>
<feColorMatrix in="SourceAlpha" type="matrix" values="0 0 0 0 0 0 0 0 0 0 0 0 0 0 0 0 0 0 127 0" result="hardAlpha"/>
<feOffset dy="4"/>
<feGaussianBlur stdDeviation="2"/>
<feColorMatrix type="matrix" values="0 0 0 0 0.898039 0 0 0 0 0.898039 0 0 0 0 0.898039 0 0 0 0.4 0"/>
<feBlend mode="normal" in2="BackgroundImageFix" result="effect1_dropShadow"/>
<feBlend mode="normal" in="SourceGraphic" in2="effect1_dropShadow" result="shape"/>
</filter>
</defs>
</svg>
