<svg width="16" height="16" viewBox="0 0 16 16" fill="none" xmlns="http://www.w3.org/2000/svg">
<path d="M14.2078 7.91088L12.214 6.33744C12.1973 6.32432 12.1773 6.31616 12.1562 6.31391C12.1351 6.31165 12.1138 6.31538 12.0947 6.32468C12.0756 6.33397 12.0595 6.34845 12.0483 6.36646C12.0371 6.38447 12.0311 6.40528 12.0312 6.42651V7.43744H8.56244V3.96869H9.57494C9.66869 3.96869 9.72182 3.85932 9.66401 3.78588L8.08901 1.79213C8.07858 1.77864 8.06521 1.76772 8.0499 1.7602C8.0346 1.75269 8.01777 1.74878 8.00073 1.74878C7.98368 1.74878 7.96685 1.75269 7.95155 1.7602C7.93625 1.76772 7.92287 1.77864 7.91244 1.79213L6.33744 3.78588C6.32432 3.80256 6.31616 3.8226 6.31391 3.84371C6.31165 3.86481 6.31538 3.88612 6.32468 3.9052C6.33397 3.92428 6.34845 3.94036 6.36646 3.95159C6.38447 3.96282 6.40528 3.96875 6.42651 3.96869H7.43744V7.43744H3.96869V6.42494C3.96869 6.33119 3.85932 6.27807 3.78588 6.33588L1.79213 7.91088C1.77864 7.92131 1.76772 7.93468 1.7602 7.94999C1.75269 7.96529 1.74878 7.98211 1.74878 7.99916C1.74878 8.01621 1.75269 8.03303 1.7602 8.04834C1.76772 8.06364 1.77864 8.07702 1.79213 8.08744L3.78432 9.66244C3.85776 9.72026 3.96713 9.66869 3.96713 9.57338V8.56244H7.43588V12.0312H6.42338C6.32963 12.0312 6.27651 12.1406 6.33432 12.214L7.90932 14.2062C7.95463 14.264 8.04213 14.264 8.08588 14.2062L9.66088 12.214C9.71869 12.1406 9.66713 12.0312 9.57182 12.0312H8.56244V8.56244H12.0312V9.57494C12.0312 9.66869 12.1406 9.72182 12.214 9.66401L14.2062 8.08901C14.2196 8.07844 14.2305 8.06498 14.2381 8.04963C14.2456 8.03428 14.2496 8.01742 14.2498 8.00032C14.2499 7.98322 14.2462 7.9663 14.239 7.95081C14.2317 7.93533 14.221 7.92168 14.2078 7.91088Z" fill="#898B96"/>
</svg>
