<svg width="16" height="16" viewBox="0 0 16 16" fill="none" xmlns="http://www.w3.org/2000/svg">
<path d="M8.00002 5.42859C7.66233 5.42859 7.32795 5.4951 7.01597 5.62433C6.70399 5.75355 6.42052 5.94296 6.18174 6.18174C5.94296 6.42052 5.75355 6.70399 5.62433 7.01597C5.4951 7.32795 5.42859 7.66233 5.42859 8.00002C5.42859 8.3377 5.4951 8.67208 5.62433 8.98406C5.75355 9.29604 5.94296 9.57951 6.18174 9.81829C6.42052 10.0571 6.70399 10.2465 7.01597 10.3757C7.32795 10.5049 7.66233 10.5714 8.00002 10.5714C8.682 10.5714 9.33606 10.3005 9.81829 9.81829C10.3005 9.33606 10.5714 8.682 10.5714 8.00002C10.5714 7.31803 10.3005 6.66398 9.81829 6.18174C9.33606 5.69951 8.682 5.42859 8.00002 5.42859ZM6.28573 8.00002C6.28573 7.77489 6.33007 7.55198 6.41622 7.34399C6.50237 7.136 6.62865 6.94702 6.78783 6.78783C6.94702 6.62865 7.136 6.50237 7.34399 6.41622C7.55198 6.33007 7.77489 6.28573 8.00002 6.28573C8.22514 6.28573 8.44806 6.33007 8.65605 6.41622C8.86403 6.50237 9.05301 6.62865 9.2122 6.78783C9.37139 6.94702 9.49766 7.136 9.58381 7.34399C9.66996 7.55198 9.7143 7.77489 9.7143 8.00002C9.7143 8.45467 9.53369 8.89071 9.2122 9.2122C8.89071 9.53369 8.45467 9.7143 8.00002 9.7143C7.54536 9.7143 7.10933 9.53369 6.78783 9.2122C6.46634 8.89071 6.28573 8.45467 6.28573 8.00002Z" fill="#383838"/>
<path d="M12.4057 12.7971L11.4183 12.3634C11.2778 12.3023 11.1249 12.275 10.9719 12.2835C10.8189 12.292 10.67 12.3362 10.5371 12.4125C10.2703 12.5668 10.1 12.8394 10.0663 13.1463L9.94743 14.2205C9.93546 14.3285 9.89044 14.4301 9.81854 14.5115C9.74664 14.5929 9.65136 14.6502 9.54572 14.6754C8.5291 14.9177 7.46976 14.9177 6.45315 14.6754C6.34761 14.6501 6.25245 14.5928 6.18066 14.5114C6.10887 14.43 6.06394 14.3284 6.052 14.2205L5.93315 13.148C5.91608 12.997 5.86387 12.8522 5.78071 12.7251C5.69755 12.5979 5.58575 12.4921 5.45429 12.416C5.32296 12.34 5.17562 12.296 5.02415 12.2875C4.87268 12.2789 4.72132 12.3061 4.58229 12.3668L3.59486 12.8005C3.49504 12.8444 3.38406 12.8561 3.27728 12.8341C3.1705 12.8121 3.0732 12.7574 2.99886 12.6777C2.28815 11.9161 1.75929 11.0033 1.452 10.008C1.41969 9.90335 1.4207 9.79128 1.4549 9.68726C1.48909 9.58324 1.55478 9.49243 1.64286 9.42739L2.51543 8.78282C2.63827 8.69257 2.73815 8.57468 2.80699 8.43868C2.87583 8.30268 2.9117 8.15239 2.9117 7.99996C2.9117 7.84754 2.87583 7.69725 2.80699 7.56125C2.73815 7.42525 2.63827 7.30736 2.51543 7.21711L1.64286 6.57425C1.55466 6.50918 1.4889 6.41827 1.4547 6.31413C1.42051 6.21 1.41956 6.0978 1.452 5.99311C1.75993 4.99863 2.28918 4.08686 3 3.32625C3.07441 3.2466 3.17174 3.19204 3.27851 3.17013C3.38529 3.14822 3.49624 3.16005 3.596 3.20396L4.57886 3.63654C4.71871 3.69673 4.8707 3.72334 5.02268 3.71426C5.17466 3.70517 5.3224 3.66064 5.45408 3.58422C5.58576 3.5078 5.69773 3.40161 5.78101 3.27416C5.8643 3.14671 5.9166 3.00154 5.93372 2.85025L6.05372 1.77711C6.0658 1.66794 6.11166 1.56526 6.18491 1.48341C6.25815 1.40156 6.35512 1.34462 6.46229 1.32054C6.96572 1.20854 7.47943 1.14911 8.00743 1.14282C8.52286 1.14854 9.036 1.20854 9.53886 1.32054C9.64615 1.34458 9.74322 1.40158 9.81649 1.48356C9.88976 1.56553 9.93554 1.66838 9.94743 1.77768L10.0669 2.85082C10.0926 3.08881 10.2053 3.30892 10.3833 3.46899C10.5613 3.62905 10.7921 3.71781 11.0314 3.71825C11.1646 3.71825 11.2966 3.69025 11.42 3.63596L12.4029 3.20339C12.5026 3.15947 12.6136 3.14765 12.7203 3.16956C12.8271 3.19147 12.9245 3.24602 12.9989 3.32568C13.7095 4.08632 14.2386 4.9981 14.5463 5.99254C14.5787 6.0971 14.5777 6.20913 14.5436 6.31314C14.5096 6.41715 14.444 6.508 14.356 6.57311L13.4846 7.21711C13.236 7.39996 13.0857 7.69082 13.0857 7.99996C13.0857 8.30854 13.236 8.59939 13.4851 8.78282L14.3571 9.42625C14.5377 9.55997 14.6143 9.79311 14.548 10.0074C14.2403 11.0017 13.7115 11.9135 13.0011 12.6743C12.9268 12.754 12.8295 12.8087 12.7227 12.8307C12.6159 12.8527 12.505 12.841 12.4051 12.7971H12.4057ZM9.29315 12.684C9.4295 12.2569 9.71972 11.8958 10.1074 11.6708C10.3568 11.5271 10.6365 11.4439 10.9239 11.4279C11.2113 11.412 11.4985 11.4636 11.7623 11.5788L12.5303 11.916C13.0236 11.3448 13.4054 10.6862 13.656 9.97425L12.9766 9.47311V9.47254C12.7453 9.3027 12.5571 9.08092 12.4271 8.82504C12.2972 8.56917 12.2292 8.28636 12.2286 7.99939C12.2286 7.41254 12.5126 6.86796 12.9754 6.52739L12.9766 6.52682L13.6549 6.02568C13.4041 5.3139 13.0221 4.65546 12.5286 4.08454L11.7669 4.41939L11.7657 4.41997C11.5337 4.52282 11.284 4.57539 11.0309 4.57539C10.5807 4.57472 10.1466 4.40811 9.81154 4.10744C9.4765 3.80677 9.26407 3.39315 9.21486 2.94568V2.94454L9.12172 2.11025C8.75411 2.04179 8.38132 2.00489 8.00743 1.99997C7.62229 2.00511 7.24743 2.04225 6.87886 2.11025L6.78572 2.94511C6.75368 3.23 6.65526 3.50341 6.49835 3.74334C6.34144 3.98328 6.13043 4.18306 5.88227 4.32662C5.63412 4.47018 5.35574 4.55351 5.06952 4.56992C4.7833 4.58633 4.49723 4.53536 4.23429 4.42111L3.47086 4.08511C2.97733 4.65602 2.59529 5.31446 2.34457 6.02625L3.02457 6.52739C3.2554 6.69738 3.44305 6.91925 3.57237 7.17509C3.70169 7.43093 3.76907 7.71358 3.76907 8.00025C3.76907 8.28692 3.70169 8.56957 3.57237 8.82541C3.44305 9.08126 3.2554 9.30312 3.02457 9.47311L2.34457 9.97482C2.59482 10.6877 2.97667 11.3474 3.47029 11.9194L4.23886 11.5822C4.50096 11.4675 4.78637 11.416 5.07205 11.4319C5.35772 11.4478 5.63566 11.5306 5.88343 11.6737C6.1311 11.8168 6.34175 12.0159 6.49846 12.2552C6.65516 12.4945 6.75355 12.7672 6.78572 13.0514V13.0542L6.87829 13.8908C7.61943 14.0365 8.38115 14.0365 9.12229 13.8908L9.21486 13.0525C9.22857 12.9268 9.25486 12.8028 9.29372 12.684H9.29315Z" fill="#383838"/>
</svg>
