<svg width="165" height="53" viewBox="0 0 165 53" fill="none" xmlns="http://www.w3.org/2000/svg">
<path d="M4.704 12.108C3.872 12.108 3.16 11.932 2.568 11.58C1.976 11.228 1.52 10.728 1.2 10.08C0.888 9.432 0.732 8.66 0.732 7.764C0.732 6.876 0.888 6.108 1.2 5.46C1.52 4.812 1.976 4.312 2.568 3.96C3.16 3.608 3.872 3.432 4.704 3.432C5.2 3.432 5.672 3.504 6.12 3.648C6.568 3.792 6.956 3.996 7.284 4.26C7.42 4.356 7.496 4.468 7.512 4.596C7.536 4.724 7.516 4.84 7.452 4.944C7.388 5.04 7.296 5.104 7.176 5.136C7.064 5.16 6.936 5.12 6.792 5.016C6.224 4.56 5.536 4.332 4.728 4.332C3.776 4.332 3.048 4.632 2.544 5.232C2.04 5.832 1.788 6.676 1.788 7.764C1.788 8.86 2.04 9.708 2.544 10.308C3.048 10.908 3.776 11.208 4.728 11.208C5.536 11.208 6.232 10.976 6.816 10.512C6.96 10.416 7.088 10.38 7.2 10.404C7.32 10.428 7.408 10.488 7.464 10.584C7.528 10.68 7.552 10.788 7.536 10.908C7.52 11.028 7.452 11.136 7.332 11.232C6.988 11.52 6.592 11.74 6.144 11.892C5.696 12.036 5.216 12.108 4.704 12.108ZM9.46622 12.084C9.14622 12.084 8.98622 11.916 8.98622 11.58V3.948C8.98622 3.62 9.14622 3.456 9.46622 3.456C9.79422 3.456 9.95822 3.62 9.95822 3.948V7.128C10.1502 6.776 10.4182 6.512 10.7622 6.336C11.1142 6.152 11.5062 6.06 11.9382 6.06C13.3222 6.06 14.0142 6.828 14.0142 8.364V11.58C14.0142 11.916 13.8542 12.084 13.5342 12.084C13.2062 12.084 13.0422 11.916 13.0422 11.58V8.424C13.0422 7.88 12.9342 7.484 12.7182 7.236C12.5102 6.98 12.1742 6.852 11.7102 6.852C11.1742 6.852 10.7462 7.02 10.4262 7.356C10.1142 7.684 9.95822 8.124 9.95822 8.676V11.58C9.95822 11.916 9.79422 12.084 9.46622 12.084ZM17.6425 12.108C17.2425 12.108 16.8825 12.032 16.5625 11.88C16.2505 11.72 16.0025 11.504 15.8185 11.232C15.6345 10.96 15.5425 10.656 15.5425 10.32C15.5425 9.896 15.6505 9.56 15.8665 9.312C16.0905 9.064 16.4545 8.888 16.9585 8.784C17.4705 8.672 18.1665 8.616 19.0465 8.616H19.4305V8.244C19.4305 7.748 19.3265 7.392 19.1185 7.176C18.9185 6.952 18.5945 6.84 18.1465 6.84C17.8665 6.84 17.5825 6.876 17.2945 6.948C17.0145 7.02 16.7225 7.136 16.4185 7.296C16.2825 7.368 16.1665 7.384 16.0705 7.344C15.9825 7.296 15.9185 7.224 15.8785 7.128C15.8465 7.024 15.8465 6.92 15.8785 6.816C15.9185 6.704 15.9985 6.62 16.1185 6.564C16.4625 6.388 16.8065 6.26 17.1505 6.18C17.5025 6.1 17.8345 6.06 18.1465 6.06C18.8985 6.06 19.4545 6.244 19.8145 6.612C20.1825 6.98 20.3665 7.552 20.3665 8.328V11.58C20.3665 11.916 20.2185 12.084 19.9225 12.084C19.6105 12.084 19.4545 11.916 19.4545 11.58V10.992C19.3025 11.336 19.0665 11.608 18.7465 11.808C18.4345 12.008 18.0665 12.108 17.6425 12.108ZM17.7985 11.376C18.2785 11.376 18.6705 11.212 18.9745 10.884C19.2785 10.548 19.4305 10.124 19.4305 9.612V9.252H19.0585C18.4105 9.252 17.8985 9.284 17.5225 9.348C17.1545 9.404 16.8945 9.508 16.7425 9.66C16.5985 9.804 16.5265 10.004 16.5265 10.26C16.5265 10.588 16.6385 10.856 16.8625 11.064C17.0945 11.272 17.4065 11.376 17.7985 11.376ZM22.6618 12.084C22.3338 12.084 22.1698 11.916 22.1698 11.58V6.576C22.1698 6.248 22.3258 6.084 22.6378 6.084C22.9578 6.084 23.1178 6.248 23.1178 6.576V7.212C23.2778 6.844 23.5258 6.564 23.8618 6.372C24.1978 6.172 24.5978 6.064 25.0618 6.048C25.3178 6.024 25.4538 6.152 25.4698 6.432C25.4938 6.712 25.3498 6.868 25.0378 6.9L24.8458 6.924C24.2938 6.972 23.8738 7.148 23.5858 7.452C23.2978 7.748 23.1538 8.156 23.1538 8.676V11.58C23.1538 11.916 22.9898 12.084 22.6618 12.084ZM29.127 12.108C28.439 12.108 27.923 11.928 27.579 11.568C27.235 11.2 27.063 10.672 27.063 9.984V6.924H26.259C25.979 6.924 25.839 6.796 25.839 6.54C25.839 6.292 25.979 6.168 26.259 6.168H27.063V4.788C27.063 4.46 27.227 4.296 27.555 4.296C27.875 4.296 28.035 4.46 28.035 4.788V6.168H29.547C29.827 6.168 29.967 6.292 29.967 6.54C29.967 6.796 29.827 6.924 29.547 6.924H28.035V9.888C28.035 10.344 28.131 10.692 28.323 10.932C28.515 11.164 28.827 11.28 29.259 11.28C29.411 11.28 29.539 11.264 29.643 11.232C29.747 11.2 29.839 11.184 29.919 11.184C29.991 11.176 30.051 11.2 30.099 11.256C30.147 11.312 30.171 11.408 30.171 11.544C30.171 11.64 30.151 11.728 30.111 11.808C30.079 11.888 30.019 11.944 29.931 11.976C29.835 12.008 29.707 12.036 29.547 12.06C29.395 12.092 29.255 12.108 29.127 12.108ZM33.5517 12.108C32.6317 12.108 31.9037 11.84 31.3677 11.304C30.8317 10.76 30.5637 10.024 30.5637 9.096C30.5637 8.496 30.6837 7.968 30.9237 7.512C31.1637 7.048 31.4917 6.692 31.9077 6.444C32.3317 6.188 32.8197 6.06 33.3717 6.06C34.1637 6.06 34.7837 6.316 35.2317 6.828C35.6797 7.332 35.9037 8.028 35.9037 8.916C35.9037 9.164 35.7637 9.288 35.4837 9.288H31.5117C31.5437 9.952 31.7357 10.46 32.0877 10.812C32.4397 11.156 32.9277 11.328 33.5517 11.328C33.8157 11.328 34.0837 11.296 34.3557 11.232C34.6277 11.16 34.8917 11.036 35.1477 10.86C35.3317 10.74 35.4837 10.716 35.6037 10.788C35.7317 10.86 35.7957 10.972 35.7957 11.124C35.8037 11.268 35.7237 11.396 35.5557 11.508C35.2917 11.7 34.9757 11.848 34.6077 11.952C34.2477 12.056 33.8957 12.108 33.5517 12.108ZM33.3957 6.78C32.8437 6.78 32.4077 6.952 32.0877 7.296C31.7677 7.64 31.5797 8.092 31.5237 8.652H35.0637C35.0397 8.06 34.8837 7.6 34.5957 7.272C34.3157 6.944 33.9157 6.78 33.3957 6.78ZM37.8024 12.084C37.4744 12.084 37.3104 11.916 37.3104 11.58V6.576C37.3104 6.248 37.4664 6.084 37.7784 6.084C38.0984 6.084 38.2584 6.248 38.2584 6.576V7.212C38.4184 6.844 38.6664 6.564 39.0024 6.372C39.3384 6.172 39.7384 6.064 40.2024 6.048C40.4584 6.024 40.5944 6.152 40.6104 6.432C40.6344 6.712 40.4904 6.868 40.1784 6.9L39.9864 6.924C39.4344 6.972 39.0144 7.148 38.7264 7.452C38.4384 7.748 38.2944 8.156 38.2944 8.676V11.58C38.2944 11.916 38.1304 12.084 37.8024 12.084ZM45.305 12.084C44.993 12.084 44.837 11.92 44.837 11.592V3.96C44.837 3.624 44.981 3.456 45.269 3.456C45.389 3.456 45.481 3.48 45.545 3.528C45.609 3.568 45.681 3.644 45.761 3.756L50.705 10.344V3.936C50.705 3.616 50.861 3.456 51.173 3.456C51.469 3.456 51.617 3.616 51.617 3.936V11.604C51.617 11.924 51.485 12.084 51.221 12.084C51.101 12.084 51.005 12.06 50.933 12.012C50.861 11.964 50.785 11.888 50.705 11.784L45.761 5.172V11.592C45.761 11.92 45.609 12.084 45.305 12.084ZM55.6518 12.108C54.2518 12.108 53.5518 11.336 53.5518 9.792V6.576C53.5518 6.248 53.7118 6.084 54.0318 6.084C54.3598 6.084 54.5238 6.248 54.5238 6.576V9.78C54.5238 10.3 54.6278 10.684 54.8358 10.932C55.0518 11.18 55.3878 11.304 55.8438 11.304C56.3398 11.304 56.7438 11.14 57.0558 10.812C57.3678 10.476 57.5238 10.032 57.5238 9.48V6.576C57.5238 6.248 57.6878 6.084 58.0158 6.084C58.3358 6.084 58.4958 6.248 58.4958 6.576V11.58C58.4958 11.916 58.3398 12.084 58.0278 12.084C57.7078 12.084 57.5478 11.916 57.5478 11.58V11.016C57.3638 11.368 57.1038 11.64 56.7678 11.832C56.4398 12.016 56.0678 12.108 55.6518 12.108ZM60.8183 12.084C60.4983 12.084 60.3383 11.916 60.3383 11.58V6.576C60.3383 6.248 60.4943 6.084 60.8063 6.084C61.1263 6.084 61.2863 6.248 61.2863 6.576V7.152C61.4623 6.8 61.7063 6.532 62.0183 6.348C62.3303 6.156 62.6943 6.06 63.1103 6.06C64.0223 6.06 64.6063 6.456 64.8623 7.248C65.0383 6.88 65.2983 6.592 65.6423 6.384C65.9863 6.168 66.3823 6.06 66.8303 6.06C68.1263 6.06 68.7743 6.828 68.7743 8.364V11.58C68.7743 11.916 68.6103 12.084 68.2823 12.084C67.9623 12.084 67.8023 11.916 67.8023 11.58V8.412C67.8023 7.876 67.7063 7.484 67.5143 7.236C67.3303 6.98 67.0223 6.852 66.5903 6.852C66.1183 6.852 65.7423 7.02 65.4623 7.356C65.1823 7.692 65.0423 8.14 65.0423 8.7V11.58C65.0423 11.916 64.8783 12.084 64.5503 12.084C64.2303 12.084 64.0703 11.916 64.0703 11.58V8.412C64.0703 7.876 63.9743 7.484 63.7823 7.236C63.5983 6.98 63.2903 6.852 62.8583 6.852C62.3783 6.852 61.9983 7.02 61.7183 7.356C61.4463 7.692 61.3103 8.14 61.3103 8.7V11.58C61.3103 11.916 61.1463 12.084 60.8183 12.084ZM73.5437 12.108C73.0877 12.108 72.6837 12.008 72.3317 11.808C71.9797 11.6 71.7197 11.316 71.5517 10.956V11.58C71.5517 11.916 71.3917 12.084 71.0717 12.084C70.7517 12.084 70.5917 11.916 70.5917 11.58V3.948C70.5917 3.62 70.7517 3.456 71.0717 3.456C71.3997 3.456 71.5637 3.62 71.5637 3.948V7.176C71.7317 6.832 71.9917 6.56 72.3437 6.36C72.6957 6.16 73.0957 6.06 73.5437 6.06C74.0637 6.06 74.5157 6.184 74.8997 6.432C75.2917 6.672 75.5917 7.02 75.7997 7.476C76.0157 7.924 76.1237 8.46 76.1237 9.084C76.1237 9.7 76.0157 10.236 75.7997 10.692C75.5917 11.14 75.2917 11.488 74.8997 11.736C74.5157 11.984 74.0637 12.108 73.5437 12.108ZM73.3397 11.328C73.8837 11.328 74.3197 11.136 74.6477 10.752C74.9757 10.36 75.1397 9.804 75.1397 9.084C75.1397 8.356 74.9757 7.8 74.6477 7.416C74.3197 7.032 73.8837 6.84 73.3397 6.84C72.7957 6.84 72.3597 7.032 72.0317 7.416C71.7037 7.8 71.5397 8.356 71.5397 9.084C71.5397 9.804 71.7037 10.36 72.0317 10.752C72.3597 11.136 72.7957 11.328 73.3397 11.328ZM80.2158 12.108C79.2958 12.108 78.5678 11.84 78.0318 11.304C77.4958 10.76 77.2278 10.024 77.2278 9.096C77.2278 8.496 77.3478 7.968 77.5878 7.512C77.8278 7.048 78.1558 6.692 78.5718 6.444C78.9958 6.188 79.4838 6.06 80.0358 6.06C80.8278 6.06 81.4478 6.316 81.8958 6.828C82.3438 7.332 82.5678 8.028 82.5678 8.916C82.5678 9.164 82.4278 9.288 82.1478 9.288H78.1758C78.2078 9.952 78.3998 10.46 78.7518 10.812C79.1038 11.156 79.5918 11.328 80.2158 11.328C80.4798 11.328 80.7478 11.296 81.0198 11.232C81.2918 11.16 81.5558 11.036 81.8118 10.86C81.9958 10.74 82.1478 10.716 82.2678 10.788C82.3958 10.86 82.4598 10.972 82.4598 11.124C82.4678 11.268 82.3878 11.396 82.2198 11.508C81.9558 11.7 81.6398 11.848 81.2718 11.952C80.9118 12.056 80.5598 12.108 80.2158 12.108ZM80.0598 6.78C79.5078 6.78 79.0718 6.952 78.7518 7.296C78.4318 7.64 78.2438 8.092 78.1878 8.652H81.7278C81.7038 8.06 81.5478 7.6 81.2598 7.272C80.9798 6.944 80.5798 6.78 80.0598 6.78ZM84.4665 12.084C84.1385 12.084 83.9745 11.916 83.9745 11.58V6.576C83.9745 6.248 84.1305 6.084 84.4425 6.084C84.7625 6.084 84.9225 6.248 84.9225 6.576V7.212C85.0825 6.844 85.3305 6.564 85.6665 6.372C86.0025 6.172 86.4025 6.064 86.8665 6.048C87.1225 6.024 87.2585 6.152 87.2745 6.432C87.2985 6.712 87.1545 6.868 86.8425 6.9L86.6505 6.924C86.0985 6.972 85.6785 7.148 85.3905 7.452C85.1025 7.748 84.9585 8.156 84.9585 8.676V11.58C84.9585 11.916 84.7945 12.084 84.4665 12.084ZM91.837 7.44C91.637 7.44 91.477 7.38 91.357 7.26C91.237 7.132 91.177 6.972 91.177 6.78C91.177 6.58 91.237 6.42 91.357 6.3C91.477 6.18 91.637 6.12 91.837 6.12C92.037 6.12 92.193 6.18 92.305 6.3C92.425 6.42 92.485 6.58 92.485 6.78C92.485 6.972 92.425 7.132 92.305 7.26C92.193 7.38 92.037 7.44 91.837 7.44ZM91.837 12.048C91.637 12.048 91.477 11.988 91.357 11.868C91.237 11.74 91.177 11.58 91.177 11.388C91.177 11.196 91.237 11.04 91.357 10.92C91.477 10.792 91.637 10.728 91.837 10.728C92.037 10.728 92.193 10.792 92.305 10.92C92.425 11.04 92.485 11.196 92.485 11.388C92.485 11.58 92.425 11.74 92.305 11.868C92.193 11.988 92.037 12.048 91.837 12.048Z" fill="#383838"/>
<rect x="0.5" y="21.5" width="164" height="31" rx="4.5" fill="#FAFAFA" stroke="#E5E5E5"/>
<path d="M15.3333 32H28.6666C29.1087 32 29.5326 32.1756 29.8451 32.4882C30.1577 32.8007 30.3333 33.2246 30.3333 33.6667V40.3333C30.3333 40.7754 30.1577 41.1993 29.8451 41.5118C29.5326 41.8244 29.1087 42 28.6666 42H15.3333C14.8913 42 14.4673 41.8244 14.1548 41.5118C13.8422 41.1993 13.6666 40.7754 13.6666 40.3333V33.6667C13.6666 33.2246 13.8422 32.8007 14.1548 32.4882C14.4673 32.1756 14.8913 32 15.3333 32V32Z" stroke="#898B96" stroke-linecap="round" stroke-linejoin="round"/>
<path d="M17.4166 39.9166H18.6666M16.1666 34.0833H17.4166H16.1666ZM18.6666 34.0833H17.4166H18.6666ZM17.4166 34.0833V39.9166V34.0833ZM17.4166 39.9166H16.1666H17.4166Z" stroke="#898B96" stroke-linecap="round" stroke-linejoin="round"/>
<path d="M50.15 40.09C49.67 40.09 49.2167 40.0333 48.79 39.92C48.37 39.8 48.0067 39.6267 47.7 39.4C47.5933 39.3267 47.53 39.24 47.51 39.14C47.49 39.04 47.5 38.9467 47.54 38.86C47.5867 38.7733 47.6533 38.7167 47.74 38.69C47.8267 38.6567 47.9267 38.6767 48.04 38.75C48.34 38.97 48.66 39.1267 49 39.22C49.34 39.3133 49.7233 39.36 50.15 39.36C50.75 39.36 51.1933 39.25 51.48 39.03C51.7733 38.8033 51.92 38.5067 51.92 38.14C51.92 37.8467 51.8133 37.6133 51.6 37.44C51.3933 37.2667 51.0433 37.13 50.55 37.03L49.51 36.82C48.8833 36.6867 48.4133 36.47 48.1 36.17C47.7933 35.8633 47.64 35.4567 47.64 34.95C47.64 34.53 47.7467 34.1633 47.96 33.85C48.18 33.5367 48.4833 33.2933 48.87 33.12C49.2567 32.9467 49.7033 32.86 50.21 32.86C50.63 32.86 51.02 32.92 51.38 33.04C51.7467 33.1533 52.0767 33.3267 52.37 33.56C52.4633 33.6333 52.5167 33.72 52.53 33.82C52.55 33.9133 52.5367 34 52.49 34.08C52.4433 34.16 52.3767 34.2133 52.29 34.24C52.2033 34.26 52.1 34.2333 51.98 34.16C51.7133 33.9533 51.4333 33.8067 51.14 33.72C50.8533 33.6333 50.54 33.59 50.2 33.59C49.6733 33.59 49.2533 33.7133 48.94 33.96C48.6267 34.2 48.47 34.52 48.47 34.92C48.47 35.24 48.5667 35.4933 48.76 35.68C48.96 35.8667 49.2833 36.0033 49.73 36.09L50.77 36.31C51.4433 36.45 51.94 36.6633 52.26 36.95C52.5867 37.23 52.75 37.6133 52.75 38.1C52.75 38.4933 52.6433 38.84 52.43 39.14C52.2233 39.44 51.9233 39.6733 51.53 39.84C51.1433 40.0067 50.6833 40.09 50.15 40.09ZM54.3123 40.07C54.0457 40.07 53.9123 39.93 53.9123 39.65V33.29C53.9123 33.0167 54.0457 32.88 54.3123 32.88C54.5857 32.88 54.7223 33.0167 54.7223 33.29V35.94C54.8823 35.6467 55.1057 35.4267 55.3923 35.28C55.6857 35.1267 56.0123 35.05 56.3723 35.05C57.5257 35.05 58.1023 35.69 58.1023 36.97V39.65C58.1023 39.93 57.969 40.07 57.7023 40.07C57.429 40.07 57.2923 39.93 57.2923 39.65V37.02C57.2923 36.5667 57.2023 36.2367 57.0223 36.03C56.849 35.8167 56.569 35.71 56.1823 35.71C55.7357 35.71 55.379 35.85 55.1123 36.13C54.8523 36.4033 54.7223 36.77 54.7223 37.23V39.65C54.7223 39.93 54.5857 40.07 54.3123 40.07ZM61.6159 40.09C61.1426 40.09 60.7326 39.9867 60.3859 39.78C60.0393 39.5733 59.7693 39.2833 59.5759 38.91C59.3893 38.53 59.2959 38.0833 59.2959 37.57C59.2959 37.0567 59.3893 36.6133 59.5759 36.24C59.7693 35.86 60.0393 35.5667 60.3859 35.36C60.7326 35.1533 61.1426 35.05 61.6159 35.05C62.0826 35.05 62.4893 35.1533 62.8359 35.36C63.1893 35.5667 63.4593 35.86 63.6459 36.24C63.8393 36.6133 63.9359 37.0567 63.9359 37.57C63.9359 38.0833 63.8393 38.53 63.6459 38.91C63.4593 39.2833 63.1893 39.5733 62.8359 39.78C62.4893 39.9867 62.0826 40.09 61.6159 40.09ZM61.6159 39.44C62.0693 39.44 62.4326 39.28 62.7059 38.96C62.9793 38.6333 63.1159 38.17 63.1159 37.57C63.1159 36.9633 62.9793 36.5 62.7059 36.18C62.4326 35.86 62.0693 35.7 61.6159 35.7C61.1559 35.7 60.7893 35.86 60.5159 36.18C60.2493 36.5 60.1159 36.9633 60.1159 37.57C60.1159 38.17 60.2493 38.6333 60.5159 38.96C60.7893 39.28 61.1559 39.44 61.6159 39.44ZM65.5626 40.07C65.2892 40.07 65.1526 39.93 65.1526 39.65V35.48C65.1526 35.2067 65.2826 35.07 65.5426 35.07C65.8092 35.07 65.9426 35.2067 65.9426 35.48V36.01C66.0759 35.7033 66.2826 35.47 66.5626 35.31C66.8426 35.1433 67.1759 35.0533 67.5626 35.04C67.7759 35.02 67.8892 35.1267 67.9026 35.36C67.9226 35.5933 67.8026 35.7233 67.5426 35.75L67.3826 35.77C66.9226 35.81 66.5726 35.9567 66.3326 36.21C66.0926 36.4567 65.9726 36.7967 65.9726 37.23V39.65C65.9726 39.93 65.8359 40.07 65.5626 40.07ZM70.9502 40.09C70.3769 40.09 69.9469 39.94 69.6602 39.64C69.3736 39.3333 69.2302 38.8933 69.2302 38.32V35.77H68.5602C68.3269 35.77 68.2102 35.6633 68.2102 35.45C68.2102 35.2433 68.3269 35.14 68.5602 35.14H69.2302V33.99C69.2302 33.7167 69.3669 33.58 69.6402 33.58C69.9069 33.58 70.0402 33.7167 70.0402 33.99V35.14H71.3002C71.5336 35.14 71.6502 35.2433 71.6502 35.45C71.6502 35.6633 71.5336 35.77 71.3002 35.77H70.0402V38.24C70.0402 38.62 70.1202 38.91 70.2802 39.11C70.4402 39.3033 70.7002 39.4 71.0602 39.4C71.1869 39.4 71.2936 39.3867 71.3802 39.36C71.4669 39.3333 71.5436 39.32 71.6102 39.32C71.6702 39.3133 71.7202 39.3333 71.7602 39.38C71.8002 39.4267 71.8202 39.5067 71.8202 39.62C71.8202 39.7 71.8036 39.7733 71.7702 39.84C71.7436 39.9067 71.6936 39.9533 71.6202 39.98C71.5402 40.0067 71.4336 40.03 71.3002 40.05C71.1736 40.0767 71.0569 40.09 70.9502 40.09ZM77.3245 40.07C77.0511 40.07 76.9145 39.9267 76.9145 39.64V33.66H74.6645C74.4111 33.66 74.2845 33.54 74.2845 33.3C74.2845 33.0667 74.4111 32.95 74.6645 32.95H79.9945C80.2478 32.95 80.3745 33.0667 80.3745 33.3C80.3745 33.54 80.2478 33.66 79.9945 33.66H77.7445V39.64C77.7445 39.9267 77.6045 40.07 77.3245 40.07ZM82.5184 40.09C81.7517 40.09 81.145 39.8667 80.6984 39.42C80.2517 38.9667 80.0284 38.3533 80.0284 37.58C80.0284 37.08 80.1284 36.64 80.3284 36.26C80.5284 35.8733 80.8017 35.5767 81.1484 35.37C81.5017 35.1567 81.9084 35.05 82.3684 35.05C83.0284 35.05 83.545 35.2633 83.9184 35.69C84.2917 36.11 84.4784 36.69 84.4784 37.43C84.4784 37.6367 84.3617 37.74 84.1284 37.74H80.8184C80.845 38.2933 81.005 38.7167 81.2984 39.01C81.5917 39.2967 81.9984 39.44 82.5184 39.44C82.7384 39.44 82.9617 39.4133 83.1884 39.36C83.415 39.3 83.635 39.1967 83.8484 39.05C84.0017 38.95 84.1284 38.93 84.2284 38.99C84.335 39.05 84.3884 39.1433 84.3884 39.27C84.395 39.39 84.3284 39.4967 84.1884 39.59C83.9684 39.75 83.705 39.8733 83.3984 39.96C83.0984 40.0467 82.805 40.09 82.5184 40.09ZM82.3884 35.65C81.9284 35.65 81.565 35.7933 81.2984 36.08C81.0317 36.3667 80.875 36.7433 80.8284 37.21H83.7784C83.7584 36.7167 83.6284 36.3333 83.3884 36.06C83.155 35.7867 82.8217 35.65 82.3884 35.65ZM85.6316 40.06C85.4982 40.06 85.3982 40.0033 85.3316 39.89C85.2649 39.77 85.2949 39.6333 85.4216 39.48L87.0116 37.49L85.5316 35.65C85.4049 35.4967 85.3749 35.3633 85.4416 35.25C85.5082 35.13 85.6082 35.07 85.7416 35.07C85.8482 35.07 85.9349 35.09 86.0016 35.13C86.0682 35.1633 86.1316 35.22 86.1916 35.3L87.4816 36.93L88.7816 35.3C88.8416 35.22 88.9049 35.1633 88.9716 35.13C89.0382 35.09 89.1216 35.07 89.2216 35.07C89.3616 35.07 89.4616 35.13 89.5216 35.25C89.5882 35.3633 89.5582 35.5 89.4316 35.66L87.9516 37.49L89.5516 39.48C89.6716 39.6333 89.6982 39.77 89.6316 39.89C89.5649 40.0033 89.4616 40.06 89.3216 40.06C89.1416 40.06 88.9916 39.9833 88.8716 39.83L87.4716 38.07L86.0816 39.83C86.0216 39.9033 85.9582 39.96 85.8916 40C85.8249 40.04 85.7382 40.06 85.6316 40.06ZM92.8155 40.09C92.2421 40.09 91.8121 39.94 91.5255 39.64C91.2388 39.3333 91.0955 38.8933 91.0955 38.32V35.77H90.4255C90.1921 35.77 90.0755 35.6633 90.0755 35.45C90.0755 35.2433 90.1921 35.14 90.4255 35.14H91.0955V33.99C91.0955 33.7167 91.2321 33.58 91.5055 33.58C91.7721 33.58 91.9055 33.7167 91.9055 33.99V35.14H93.1655C93.3988 35.14 93.5155 35.2433 93.5155 35.45C93.5155 35.6633 93.3988 35.77 93.1655 35.77H91.9055V38.24C91.9055 38.62 91.9855 38.91 92.1455 39.11C92.3055 39.3033 92.5655 39.4 92.9255 39.4C93.0521 39.4 93.1588 39.3867 93.2455 39.36C93.3321 39.3333 93.4088 39.32 93.4755 39.32C93.5355 39.3133 93.5855 39.3333 93.6255 39.38C93.6655 39.4267 93.6855 39.5067 93.6855 39.62C93.6855 39.7 93.6688 39.7733 93.6355 39.84C93.6088 39.9067 93.5588 39.9533 93.4855 39.98C93.4055 40.0067 93.2988 40.03 93.1655 40.05C93.0388 40.0767 92.9221 40.09 92.8155 40.09Z" fill="#898B96"/>
<path d="M154.312 41.375C154.312 41.7231 154.174 42.0569 153.928 42.3031C153.682 42.5492 153.348 42.6875 153 42.6875C152.652 42.6875 152.318 42.5492 152.072 42.3031C151.826 42.0569 151.688 41.7231 151.688 41.375C151.688 41.0269 151.826 40.6931 152.072 40.4469C152.318 40.2008 152.652 40.0625 153 40.0625C153.348 40.0625 153.682 40.2008 153.928 40.4469C154.174 40.6931 154.312 41.0269 154.312 41.375ZM154.312 37C154.312 37.3481 154.174 37.6819 153.928 37.9281C153.682 38.1742 153.348 38.3125 153 38.3125C152.652 38.3125 152.318 38.1742 152.072 37.9281C151.826 37.6819 151.688 37.3481 151.688 37C151.688 36.6519 151.826 36.3181 152.072 36.0719C152.318 35.8258 152.652 35.6875 153 35.6875C153.348 35.6875 153.682 35.8258 153.928 36.0719C154.174 36.3181 154.312 36.6519 154.312 37ZM154.312 32.625C154.312 32.9731 154.174 33.3069 153.928 33.5531C153.682 33.7992 153.348 33.9375 153 33.9375C152.652 33.9375 152.318 33.7992 152.072 33.5531C151.826 33.3069 151.688 32.9731 151.688 32.625C151.688 32.2769 151.826 31.9431 152.072 31.6969C152.318 31.4508 152.652 31.3125 153 31.3125C153.348 31.3125 153.682 31.4508 153.928 31.6969C154.174 31.9431 154.312 32.2769 154.312 32.625Z" fill="#898B96"/>
</svg>
