<svg width="165" height="52" viewBox="0 0 165 52" fill="none" xmlns="http://www.w3.org/2000/svg">
<path d="M1.512 12.084C1.2 12.084 1.044 11.92 1.044 11.592V3.96C1.044 3.624 1.188 3.456 1.476 3.456C1.596 3.456 1.688 3.48 1.752 3.528C1.816 3.568 1.888 3.644 1.968 3.756L6.912 10.344V3.936C6.912 3.616 7.068 3.456 7.38 3.456C7.676 3.456 7.824 3.616 7.824 3.936V11.604C7.824 11.924 7.692 12.084 7.428 12.084C7.308 12.084 7.212 12.06 7.14 12.012C7.068 11.964 6.992 11.888 6.912 11.784L1.968 5.172V11.592C1.968 11.92 1.816 12.084 1.512 12.084ZM11.6308 12.108C11.2308 12.108 10.8708 12.032 10.5508 11.88C10.2388 11.72 9.99081 11.504 9.80681 11.232C9.62281 10.96 9.53081 10.656 9.53081 10.32C9.53081 9.896 9.63881 9.56 9.85481 9.312C10.0788 9.064 10.4428 8.888 10.9468 8.784C11.4588 8.672 12.1548 8.616 13.0348 8.616H13.4188V8.244C13.4188 7.748 13.3148 7.392 13.1068 7.176C12.9068 6.952 12.5828 6.84 12.1348 6.84C11.8548 6.84 11.5708 6.876 11.2828 6.948C11.0028 7.02 10.7108 7.136 10.4068 7.296C10.2708 7.368 10.1548 7.384 10.0588 7.344C9.97081 7.296 9.90681 7.224 9.86681 7.128C9.83481 7.024 9.83481 6.92 9.86681 6.816C9.90681 6.704 9.98681 6.62 10.1068 6.564C10.4508 6.388 10.7948 6.26 11.1388 6.18C11.4908 6.1 11.8228 6.06 12.1348 6.06C12.8868 6.06 13.4428 6.244 13.8028 6.612C14.1708 6.98 14.3548 7.552 14.3548 8.328V11.58C14.3548 11.916 14.2068 12.084 13.9108 12.084C13.5988 12.084 13.4428 11.916 13.4428 11.58V10.992C13.2908 11.336 13.0548 11.608 12.7348 11.808C12.4228 12.008 12.0548 12.108 11.6308 12.108ZM11.7868 11.376C12.2668 11.376 12.6588 11.212 12.9628 10.884C13.2668 10.548 13.4188 10.124 13.4188 9.612V9.252H13.0468C12.3988 9.252 11.8868 9.284 11.5108 9.348C11.1428 9.404 10.8828 9.508 10.7308 9.66C10.5868 9.804 10.5148 10.004 10.5148 10.26C10.5148 10.588 10.6268 10.856 10.8508 11.064C11.0828 11.272 11.3948 11.376 11.7868 11.376ZM16.6621 12.084C16.3421 12.084 16.1821 11.916 16.1821 11.58V6.576C16.1821 6.248 16.3381 6.084 16.6501 6.084C16.9701 6.084 17.1301 6.248 17.1301 6.576V7.152C17.3061 6.8 17.5501 6.532 17.8621 6.348C18.1741 6.156 18.5381 6.06 18.9541 6.06C19.8661 6.06 20.4501 6.456 20.7061 7.248C20.8821 6.88 21.1421 6.592 21.4861 6.384C21.8301 6.168 22.2261 6.06 22.6741 6.06C23.9701 6.06 24.6181 6.828 24.6181 8.364V11.58C24.6181 11.916 24.4541 12.084 24.1261 12.084C23.8061 12.084 23.6461 11.916 23.6461 11.58V8.412C23.6461 7.876 23.5501 7.484 23.3581 7.236C23.1741 6.98 22.8661 6.852 22.4341 6.852C21.9621 6.852 21.5861 7.02 21.3061 7.356C21.0261 7.692 20.8861 8.14 20.8861 8.7V11.58C20.8861 11.916 20.7221 12.084 20.3941 12.084C20.0741 12.084 19.9141 11.916 19.9141 11.58V8.412C19.9141 7.876 19.8181 7.484 19.6261 7.236C19.4421 6.98 19.1341 6.852 18.7021 6.852C18.2221 6.852 17.8421 7.02 17.5621 7.356C17.2901 7.692 17.1541 8.14 17.1541 8.7V11.58C17.1541 11.916 16.9901 12.084 16.6621 12.084ZM29.0634 12.108C28.1434 12.108 27.4154 11.84 26.8794 11.304C26.3434 10.76 26.0754 10.024 26.0754 9.096C26.0754 8.496 26.1954 7.968 26.4354 7.512C26.6754 7.048 27.0034 6.692 27.4194 6.444C27.8434 6.188 28.3314 6.06 28.8834 6.06C29.6754 6.06 30.2954 6.316 30.7434 6.828C31.1914 7.332 31.4154 8.028 31.4154 8.916C31.4154 9.164 31.2754 9.288 30.9954 9.288H27.0234C27.0554 9.952 27.2474 10.46 27.5994 10.812C27.9514 11.156 28.4394 11.328 29.0634 11.328C29.3274 11.328 29.5954 11.296 29.8674 11.232C30.1394 11.16 30.4034 11.036 30.6594 10.86C30.8434 10.74 30.9954 10.716 31.1154 10.788C31.2434 10.86 31.3074 10.972 31.3074 11.124C31.3154 11.268 31.2354 11.396 31.0674 11.508C30.8034 11.7 30.4874 11.848 30.1194 11.952C29.7594 12.056 29.4074 12.108 29.0634 12.108ZM28.9074 6.78C28.3554 6.78 27.9194 6.952 27.5994 7.296C27.2794 7.64 27.0914 8.092 27.0354 8.652H30.5754C30.5514 8.06 30.3954 7.6 30.1074 7.272C29.8274 6.944 29.4274 6.78 28.9074 6.78ZM36.3839 7.44C36.1839 7.44 36.0239 7.38 35.9039 7.26C35.7839 7.132 35.7239 6.972 35.7239 6.78C35.7239 6.58 35.7839 6.42 35.9039 6.3C36.0239 6.18 36.1839 6.12 36.3839 6.12C36.5839 6.12 36.7399 6.18 36.8519 6.3C36.9719 6.42 37.0319 6.58 37.0319 6.78C37.0319 6.972 36.9719 7.132 36.8519 7.26C36.7399 7.38 36.5839 7.44 36.3839 7.44ZM36.3839 12.048C36.1839 12.048 36.0239 11.988 35.9039 11.868C35.7839 11.74 35.7239 11.58 35.7239 11.388C35.7239 11.196 35.7839 11.04 35.9039 10.92C36.0239 10.792 36.1839 10.728 36.3839 10.728C36.5839 10.728 36.7399 10.792 36.8519 10.92C36.9719 11.04 37.0319 11.196 37.0319 11.388C37.0319 11.58 36.9719 11.74 36.8519 11.868C36.7399 11.988 36.5839 12.048 36.3839 12.048Z" fill="#383838"/>
<rect x="0.5" y="20.5" width="164" height="31" rx="4.5" fill="#FAFAFA" stroke="#E5E5E5"/>
<path d="M154.312 40.375C154.312 40.7231 154.174 41.0569 153.928 41.3031C153.682 41.5492 153.348 41.6875 153 41.6875C152.652 41.6875 152.318 41.5492 152.072 41.3031C151.826 41.0569 151.688 40.7231 151.688 40.375C151.688 40.0269 151.826 39.6931 152.072 39.4469C152.318 39.2008 152.652 39.0625 153 39.0625C153.348 39.0625 153.682 39.2008 153.928 39.4469C154.174 39.6931 154.312 40.0269 154.312 40.375ZM154.312 36C154.312 36.3481 154.174 36.6819 153.928 36.9281C153.682 37.1742 153.348 37.3125 153 37.3125C152.652 37.3125 152.318 37.1742 152.072 36.9281C151.826 36.6819 151.688 36.3481 151.688 36C151.688 35.6519 151.826 35.3181 152.072 35.0719C152.318 34.8258 152.652 34.6875 153 34.6875C153.348 34.6875 153.682 34.8258 153.928 35.0719C154.174 35.3181 154.312 35.6519 154.312 36ZM154.312 31.625C154.312 31.9731 154.174 32.3069 153.928 32.5531C153.682 32.7992 153.348 32.9375 153 32.9375C152.652 32.9375 152.318 32.7992 152.072 32.5531C151.826 32.3069 151.688 31.9731 151.688 31.625C151.688 31.2769 151.826 30.9431 152.072 30.6969C152.318 30.4508 152.652 30.3125 153 30.3125C153.348 30.3125 153.682 30.4508 153.928 30.6969C154.174 30.9431 154.312 31.2769 154.312 31.625Z" fill="#898B96"/>
<path d="M48.32 40C48.02 40 47.87 39.85 47.87 39.55V33.4C47.87 33.1 48.02 32.95 48.32 32.95H50.25C51.39 32.95 52.27 33.2533 52.89 33.86C53.51 34.46 53.82 35.33 53.82 36.47C53.82 37.61 53.51 38.4833 52.89 39.09C52.27 39.6967 51.39 40 50.25 40H48.32ZM48.69 39.3H50.19C52.03 39.3 52.95 38.3567 52.95 36.47C52.95 34.59 52.03 33.65 50.19 33.65H48.69V39.3ZM55.5919 40.07C55.3185 40.07 55.1819 39.93 55.1819 39.65V35.48C55.1819 35.2067 55.3119 35.07 55.5719 35.07C55.8385 35.07 55.9719 35.2067 55.9719 35.48V36.01C56.1052 35.7033 56.3119 35.47 56.5919 35.31C56.8719 35.1433 57.2052 35.0533 57.5919 35.04C57.8052 35.02 57.9185 35.1267 57.9319 35.36C57.9519 35.5933 57.8319 35.7233 57.5719 35.75L57.4119 35.77C56.9519 35.81 56.6019 35.9567 56.3619 36.21C56.1219 36.4567 56.0019 36.7967 56.0019 37.23V39.65C56.0019 39.93 55.8652 40.07 55.5919 40.07ZM60.7273 40.09C60.2539 40.09 59.8439 39.9867 59.4973 39.78C59.1506 39.5733 58.8806 39.2833 58.6873 38.91C58.5006 38.53 58.4073 38.0833 58.4073 37.57C58.4073 37.0567 58.5006 36.6133 58.6873 36.24C58.8806 35.86 59.1506 35.5667 59.4973 35.36C59.8439 35.1533 60.2539 35.05 60.7273 35.05C61.1939 35.05 61.6006 35.1533 61.9473 35.36C62.3006 35.5667 62.5706 35.86 62.7573 36.24C62.9506 36.6133 63.0473 37.0567 63.0473 37.57C63.0473 38.0833 62.9506 38.53 62.7573 38.91C62.5706 39.2833 62.3006 39.5733 61.9473 39.78C61.6006 39.9867 61.1939 40.09 60.7273 40.09ZM60.7273 39.44C61.1806 39.44 61.5439 39.28 61.8173 38.96C62.0906 38.6333 62.2273 38.17 62.2273 37.57C62.2273 36.9633 62.0906 36.5 61.8173 36.18C61.5439 35.86 61.1806 35.7 60.7273 35.7C60.2673 35.7 59.9006 35.86 59.6273 36.18C59.3606 36.5 59.2273 36.9633 59.2273 37.57C59.2273 38.17 59.3606 38.6333 59.6273 38.96C59.9006 39.28 60.2673 39.44 60.7273 39.44ZM64.6639 41.87C64.3972 41.87 64.2639 41.7333 64.2639 41.46V35.48C64.2639 35.2067 64.3939 35.07 64.6539 35.07C64.9272 35.07 65.0639 35.2067 65.0639 35.48V36C65.2039 35.7067 65.4206 35.4767 65.7139 35.31C66.0072 35.1367 66.3439 35.05 66.7239 35.05C67.1572 35.05 67.5339 35.1533 67.8539 35.36C68.1806 35.56 68.4306 35.85 68.6039 36.23C68.7839 36.6033 68.8739 37.05 68.8739 37.57C68.8739 38.0833 68.7839 38.53 68.6039 38.91C68.4306 39.2833 68.1806 39.5733 67.8539 39.78C67.5339 39.9867 67.1572 40.09 66.7239 40.09C66.3506 40.09 66.0172 40.0067 65.7239 39.84C65.4306 39.6733 65.2139 39.4433 65.0739 39.15V41.46C65.0739 41.7333 64.9372 41.87 64.6639 41.87ZM66.5539 39.44C67.0072 39.44 67.3706 39.28 67.6439 38.96C67.9172 38.6333 68.0539 38.17 68.0539 37.57C68.0539 36.9633 67.9172 36.5 67.6439 36.18C67.3706 35.86 67.0072 35.7 66.5539 35.7C66.1006 35.7 65.7372 35.86 65.4639 36.18C65.1906 36.5 65.0539 36.9633 65.0539 37.57C65.0539 38.17 65.1906 38.6333 65.4639 38.96C65.7372 39.28 66.1006 39.44 66.5539 39.44ZM70.4805 37.67C70.3805 37.67 70.2971 37.64 70.2305 37.58C70.1638 37.5133 70.1305 37.4333 70.1305 37.34C70.1305 37.24 70.1638 37.16 70.2305 37.1C70.2971 37.0333 70.3805 37 70.4805 37H72.7305C72.8238 37 72.9038 37.0333 72.9705 37.1C73.0371 37.16 73.0705 37.24 73.0705 37.34C73.0705 37.4333 73.0371 37.5133 72.9705 37.58C72.9038 37.64 72.8238 37.67 72.7305 37.67H70.4805ZM76.4752 40.09C76.0419 40.09 75.6619 39.9867 75.3352 39.78C75.0152 39.5733 74.7652 39.2833 74.5852 38.91C74.4119 38.53 74.3252 38.0833 74.3252 37.57C74.3252 37.05 74.4119 36.6033 74.5852 36.23C74.7652 35.85 75.0152 35.56 75.3352 35.36C75.6619 35.1533 76.0419 35.05 76.4752 35.05C76.8552 35.05 77.1886 35.1333 77.4752 35.3C77.7686 35.4667 77.9852 35.6967 78.1252 35.99V33.29C78.1252 33.0167 78.2619 32.88 78.5352 32.88C78.8019 32.88 78.9352 33.0167 78.9352 33.29V39.65C78.9352 39.93 78.8019 40.07 78.5352 40.07C78.2686 40.07 78.1352 39.93 78.1352 39.65V39.13C77.9886 39.43 77.7686 39.6667 77.4752 39.84C77.1886 40.0067 76.8552 40.09 76.4752 40.09ZM76.6452 39.44C77.0986 39.44 77.4619 39.28 77.7352 38.96C78.0086 38.6333 78.1452 38.17 78.1452 37.57C78.1452 36.9633 78.0086 36.5 77.7352 36.18C77.4619 35.86 77.0986 35.7 76.6452 35.7C76.1852 35.7 75.8186 35.86 75.5452 36.18C75.2786 36.5 75.1452 36.9633 75.1452 37.57C75.1452 38.17 75.2786 38.6333 75.5452 38.96C75.8186 39.28 76.1852 39.44 76.6452 39.44ZM82.4753 40.09C82.002 40.09 81.592 39.9867 81.2453 39.78C80.8986 39.5733 80.6286 39.2833 80.4353 38.91C80.2486 38.53 80.1553 38.0833 80.1553 37.57C80.1553 37.0567 80.2486 36.6133 80.4353 36.24C80.6286 35.86 80.8986 35.5667 81.2453 35.36C81.592 35.1533 82.002 35.05 82.4753 35.05C82.942 35.05 83.3486 35.1533 83.6953 35.36C84.0486 35.5667 84.3186 35.86 84.5053 36.24C84.6986 36.6133 84.7953 37.0567 84.7953 37.57C84.7953 38.0833 84.6986 38.53 84.5053 38.91C84.3186 39.2833 84.0486 39.5733 83.6953 39.78C83.3486 39.9867 82.942 40.09 82.4753 40.09ZM82.4753 39.44C82.9286 39.44 83.292 39.28 83.5653 38.96C83.8386 38.6333 83.9753 38.17 83.9753 37.57C83.9753 36.9633 83.8386 36.5 83.5653 36.18C83.292 35.86 82.9286 35.7 82.4753 35.7C82.0153 35.7 81.6486 35.86 81.3753 36.18C81.1086 36.5 80.9753 36.9633 80.9753 37.57C80.9753 38.17 81.1086 38.6333 81.3753 38.96C81.6486 39.28 82.0153 39.44 82.4753 39.44ZM87.6236 40.07C87.3769 40.07 87.2069 39.9433 87.1136 39.69L85.6236 35.64C85.5569 35.4667 85.5569 35.33 85.6236 35.23C85.6969 35.1233 85.8103 35.07 85.9636 35.07C86.0636 35.07 86.1436 35.0933 86.2036 35.14C86.2703 35.1867 86.3236 35.2733 86.3636 35.4L87.6436 39.05L88.9636 35.4C89.0436 35.18 89.1936 35.07 89.4136 35.07C89.6269 35.07 89.7736 35.18 89.8536 35.4L91.1536 39.06L92.4536 35.38C92.5003 35.26 92.5536 35.18 92.6136 35.14C92.6803 35.0933 92.7636 35.07 92.8636 35.07C93.0236 35.07 93.1269 35.13 93.1736 35.25C93.2203 35.3633 93.2136 35.4933 93.1536 35.64L91.6636 39.69C91.5636 39.9433 91.3936 40.07 91.1536 40.07C90.9069 40.07 90.7403 39.9433 90.6536 39.69L89.3936 36.23L88.1336 39.69C88.0403 39.9433 87.8703 40.07 87.6236 40.07ZM94.7518 40.07C94.4851 40.07 94.3518 39.93 94.3518 39.65V35.48C94.3518 35.2067 94.4818 35.07 94.7418 35.07C95.0085 35.07 95.1418 35.2067 95.1418 35.48V35.97C95.3018 35.6633 95.5285 35.4333 95.8218 35.28C96.1151 35.1267 96.4451 35.05 96.8118 35.05C97.9651 35.05 98.5418 35.69 98.5418 36.97V39.65C98.5418 39.93 98.4085 40.07 98.1418 40.07C97.8685 40.07 97.7318 39.93 97.7318 39.65V37.02C97.7318 36.5667 97.6418 36.2367 97.4618 36.03C97.2885 35.8167 97.0085 35.71 96.6218 35.71C96.1751 35.71 95.8185 35.85 95.5518 36.13C95.2918 36.4033 95.1618 36.77 95.1618 37.23V39.65C95.1618 39.93 95.0251 40.07 94.7518 40.07ZM103.124 40.07C102.87 40.07 102.744 39.9367 102.744 39.67V33.28C102.744 33.0133 102.87 32.88 103.124 32.88C103.23 32.88 103.314 32.9033 103.374 32.95C103.44 32.99 103.5 33.06 103.554 33.16L106.144 38.04L108.724 33.16C108.777 33.06 108.834 32.99 108.894 32.95C108.954 32.9033 109.04 32.88 109.154 32.88C109.4 32.88 109.524 33.0133 109.524 33.28V39.67C109.524 39.9367 109.397 40.07 109.144 40.07C108.89 40.07 108.764 39.9367 108.764 39.67V34.49L106.504 38.74C106.457 38.8267 106.407 38.89 106.354 38.93C106.307 38.9633 106.237 38.98 106.144 38.98C106.05 38.98 105.977 38.96 105.924 38.92C105.87 38.88 105.824 38.82 105.784 38.74L103.494 34.5V39.67C103.494 39.9367 103.37 40.07 103.124 40.07ZM113.358 40.09C112.592 40.09 111.985 39.8667 111.538 39.42C111.092 38.9667 110.868 38.3533 110.868 37.58C110.868 37.08 110.968 36.64 111.168 36.26C111.368 35.8733 111.642 35.5767 111.988 35.37C112.342 35.1567 112.748 35.05 113.208 35.05C113.868 35.05 114.385 35.2633 114.758 35.69C115.132 36.11 115.318 36.69 115.318 37.43C115.318 37.6367 115.202 37.74 114.968 37.74H111.658C111.685 38.2933 111.845 38.7167 112.138 39.01C112.432 39.2967 112.838 39.44 113.358 39.44C113.578 39.44 113.802 39.4133 114.028 39.36C114.255 39.3 114.475 39.1967 114.688 39.05C114.842 38.95 114.968 38.93 115.068 38.99C115.175 39.05 115.228 39.1433 115.228 39.27C115.235 39.39 115.168 39.4967 115.028 39.59C114.808 39.75 114.545 39.8733 114.238 39.96C113.938 40.0467 113.645 40.09 113.358 40.09ZM113.228 35.65C112.768 35.65 112.405 35.7933 112.138 36.08C111.872 36.3667 111.715 36.7433 111.668 37.21H114.618C114.598 36.7167 114.468 36.3333 114.228 36.06C113.995 35.7867 113.662 35.65 113.228 35.65ZM116.89 40.07C116.624 40.07 116.49 39.93 116.49 39.65V35.48C116.49 35.2067 116.62 35.07 116.88 35.07C117.147 35.07 117.28 35.2067 117.28 35.48V35.97C117.44 35.6633 117.667 35.4333 117.96 35.28C118.254 35.1267 118.584 35.05 118.95 35.05C120.104 35.05 120.68 35.69 120.68 36.97V39.65C120.68 39.93 120.547 40.07 120.28 40.07C120.007 40.07 119.87 39.93 119.87 39.65V37.02C119.87 36.5667 119.78 36.2367 119.6 36.03C119.427 35.8167 119.147 35.71 118.76 35.71C118.314 35.71 117.957 35.85 117.69 36.13C117.43 36.4033 117.3 36.77 117.3 37.23V39.65C117.3 39.93 117.164 40.07 116.89 40.07ZM123.894 40.09C122.727 40.09 122.144 39.4467 122.144 38.16V35.48C122.144 35.2067 122.277 35.07 122.544 35.07C122.817 35.07 122.954 35.2067 122.954 35.48V38.15C122.954 38.5833 123.041 38.9033 123.214 39.11C123.394 39.3167 123.674 39.42 124.054 39.42C124.467 39.42 124.804 39.2833 125.064 39.01C125.324 38.73 125.454 38.36 125.454 37.9V35.48C125.454 35.2067 125.591 35.07 125.864 35.07C126.131 35.07 126.264 35.2067 126.264 35.48V39.65C126.264 39.93 126.134 40.07 125.874 40.07C125.607 40.07 125.474 39.93 125.474 39.65V39.18C125.321 39.4733 125.104 39.7 124.824 39.86C124.551 40.0133 124.241 40.09 123.894 40.09ZM129.42 40.09C129.12 40.09 128.816 40.0533 128.51 39.98C128.21 39.9 127.93 39.7733 127.67 39.6C127.55 39.5267 127.49 39.4333 127.49 39.32C127.496 39.2 127.543 39.1067 127.63 39.04C127.716 38.9733 127.826 38.9733 127.96 39.04C128.22 39.2 128.47 39.3133 128.71 39.38C128.956 39.44 129.2 39.47 129.44 39.47C129.82 39.47 130.106 39.4 130.3 39.26C130.493 39.12 130.59 38.93 130.59 38.69C130.59 38.5033 130.526 38.3567 130.4 38.25C130.273 38.1367 130.073 38.05 129.8 37.99L128.89 37.79C128.063 37.61 127.65 37.1833 127.65 36.51C127.65 36.07 127.823 35.7167 128.17 35.45C128.523 35.1833 128.983 35.05 129.55 35.05C129.836 35.05 130.113 35.09 130.38 35.17C130.646 35.2433 130.886 35.3633 131.1 35.53C131.213 35.61 131.263 35.7067 131.25 35.82C131.236 35.9333 131.183 36.0233 131.09 36.09C131.003 36.15 130.896 36.14 130.77 36.06C130.57 35.9267 130.366 35.83 130.16 35.77C129.953 35.7033 129.75 35.67 129.55 35.67C129.176 35.67 128.893 35.7433 128.7 35.89C128.506 36.0367 128.41 36.23 128.41 36.47C128.41 36.8433 128.656 37.0833 129.15 37.19L130.06 37.38C130.486 37.4733 130.81 37.6233 131.03 37.83C131.25 38.03 131.36 38.3033 131.36 38.65C131.36 39.0967 131.183 39.45 130.83 39.71C130.476 39.9633 130.006 40.09 129.42 40.09Z" fill="#898B96"/>
<g clip-path="url(#clip0)">
<path fill-rule="evenodd" clip-rule="evenodd" d="M22 31.1334C21.8586 31.1334 21.7229 31.1896 21.6229 31.2896C21.5229 31.3896 21.4667 31.5252 21.4667 31.6667C21.4667 31.8081 21.5229 31.9438 21.6229 32.0438C21.7229 32.1438 21.8586 32.2 22 32.2H31.3333C31.4748 32.2 31.6104 32.1438 31.7105 32.0438C31.8105 31.9438 31.8667 31.8081 31.8667 31.6667C31.8667 31.5252 31.8105 31.3896 31.7105 31.2896C31.6104 31.1896 31.4748 31.1334 31.3333 31.1334H22ZM22 33.8C21.93 33.8 21.8606 33.8138 21.7959 33.8406C21.7312 33.8674 21.6724 33.9067 21.6229 33.9562C21.5734 34.0058 21.5341 34.0646 21.5073 34.1293C21.4805 34.194 21.4667 34.2633 21.4667 34.3334C21.4667 34.4034 21.4805 34.4728 21.5073 34.5375C21.5341 34.6022 21.5734 34.661 21.6229 34.7105C21.6724 34.76 21.7312 34.7993 21.7959 34.8261C21.8606 34.8529 21.93 34.8667 22 34.8667H31.3333C31.4748 34.8667 31.6104 34.8105 31.7105 34.7105C31.8105 34.6105 31.8667 34.4748 31.8667 34.3334C31.8667 34.1919 31.8105 34.0563 31.7105 33.9562C31.6104 33.8562 31.4748 33.8 31.3333 33.8H22ZM21.4667 37C21.4667 36.7067 21.7067 36.4667 22 36.4667H31.3333C31.4748 36.4667 31.6104 36.5229 31.7105 36.6229C31.8105 36.7229 31.8667 36.8586 31.8667 37C31.8667 37.1415 31.8105 37.2771 31.7105 37.3772C31.6104 37.4772 31.4748 37.5334 31.3333 37.5334H22C21.93 37.5334 21.8606 37.5196 21.7959 37.4928C21.7312 37.466 21.6724 37.4267 21.6229 37.3772C21.5734 37.3276 21.5341 37.2688 21.5073 37.2041C21.4805 37.1394 21.4667 37.0701 21.4667 37ZM22 39.1334C21.8586 39.1334 21.7229 39.1896 21.6229 39.2896C21.5229 39.3896 21.4667 39.5252 21.4667 39.6667C21.4667 39.8081 21.5229 39.9438 21.6229 40.0438C21.7229 40.1438 21.8586 40.2 22 40.2H31.3333C31.4748 40.2 31.6104 40.1438 31.7105 40.0438C31.8105 39.9438 31.8667 39.8081 31.8667 39.6667C31.8667 39.5252 31.8105 39.3896 31.7105 39.2896C31.6104 39.1896 31.4748 39.1334 31.3333 39.1334H22ZM21.4667 42.3334C21.4667 42.04 21.7067 41.8 22 41.8H31.3333C31.4748 41.8 31.6104 41.8562 31.7105 41.9562C31.8105 42.0563 31.8667 42.1919 31.8667 42.3334C31.8667 42.4748 31.8105 42.6105 31.7105 42.7105C31.6104 42.8105 31.4748 42.8667 31.3333 42.8667H22C21.8586 42.8667 21.7229 42.8105 21.6229 42.7105C21.5229 42.6105 21.4667 42.4748 21.4667 42.3334ZM15.3333 39.3334L18.6667 35H12L15.3333 39.3334Z" fill="#898B96"/>
<path fill-rule="evenodd" clip-rule="evenodd" d="M21.6229 31.2896C21.7229 31.1896 21.8586 31.1334 22 31.1334H31.3333C31.4748 31.1334 31.6104 31.1896 31.7105 31.2896C31.8105 31.3896 31.8667 31.5252 31.8667 31.6667C31.8667 31.8081 31.8105 31.9438 31.7105 32.0438C31.6104 32.1438 31.4748 32.2 31.3333 32.2H22C21.8586 32.2 21.7229 32.1438 21.6229 32.0438C21.5229 31.9438 21.4667 31.8081 21.4667 31.6667C21.4667 31.5252 21.5229 31.3896 21.6229 31.2896ZM21.7959 33.8406C21.8606 33.8138 21.93 33.8 22 33.8H31.3333C31.4748 33.8 31.6104 33.8562 31.7105 33.9562C31.8105 34.0563 31.8667 34.1919 31.8667 34.3334C31.8667 34.4748 31.8105 34.6105 31.7105 34.7105C31.6104 34.8105 31.4748 34.8667 31.3333 34.8667H22C21.93 34.8667 21.8606 34.8529 21.7959 34.8261C21.7312 34.7993 21.6724 34.76 21.6229 34.7105C21.5734 34.661 21.5341 34.6022 21.5073 34.5375C21.4805 34.4728 21.4667 34.4034 21.4667 34.3334C21.4667 34.2633 21.4805 34.194 21.5073 34.1293C21.5341 34.0646 21.5734 34.0058 21.6229 33.9562C21.6724 33.9067 21.7312 33.8674 21.7959 33.8406ZM22 36.4667C21.7067 36.4667 21.4667 36.7067 21.4667 37C21.4667 37.0701 21.4805 37.1394 21.5073 37.2041C21.5341 37.2688 21.5734 37.3276 21.6229 37.3772C21.6724 37.4267 21.7312 37.466 21.7959 37.4928C21.8606 37.5196 21.93 37.5334 22 37.5334H31.3333C31.4748 37.5334 31.6104 37.4772 31.7105 37.3772C31.8105 37.2771 31.8667 37.1415 31.8667 37C31.8667 36.8586 31.8105 36.7229 31.7105 36.6229C31.6104 36.5229 31.4748 36.4667 31.3333 36.4667H22ZM21.6229 39.2896C21.7229 39.1896 21.8586 39.1334 22 39.1334H31.3333C31.4748 39.1334 31.6104 39.1896 31.7105 39.2896C31.8105 39.3896 31.8667 39.5252 31.8667 39.6667C31.8667 39.8081 31.8105 39.9438 31.7105 40.0438C31.6104 40.1438 31.4748 40.2 31.3333 40.2H22C21.8586 40.2 21.7229 40.1438 21.6229 40.0438C21.5229 39.9438 21.4667 39.8081 21.4667 39.6667C21.4667 39.5252 21.5229 39.3896 21.6229 39.2896ZM22 41.8C21.7067 41.8 21.4667 42.04 21.4667 42.3334C21.4667 42.4748 21.5229 42.6105 21.6229 42.7105C21.7229 42.8105 21.8586 42.8667 22 42.8667H31.3333C31.4748 42.8667 31.6104 42.8105 31.7105 42.7105C31.8105 42.6105 31.8667 42.4748 31.8667 42.3334C31.8667 42.1919 31.8105 42.0563 31.7105 41.9562C31.6104 41.8562 31.4748 41.8 31.3333 41.8H22Z" fill="#898B96"/>
</g>
<defs>
<clipPath id="clip0">
<rect width="20" height="20" fill="white" transform="translate(12 27)"/>
</clipPath>
</defs>
</svg>
