<svg width="165" height="32" viewBox="0 0 165 32" fill="none" xmlns="http://www.w3.org/2000/svg">
<rect x="0.5" y="0.5" width="164" height="31" rx="4.5" fill="#FAFAFA" stroke="#E5E5E5"/>
<path d="M154.312 20.375C154.312 20.7231 154.174 21.0569 153.928 21.3031C153.682 21.5492 153.348 21.6875 153 21.6875C152.652 21.6875 152.318 21.5492 152.072 21.3031C151.826 21.0569 151.688 20.7231 151.688 20.375C151.688 20.0269 151.826 19.6931 152.072 19.4469C152.318 19.2008 152.652 19.0625 153 19.0625C153.348 19.0625 153.682 19.2008 153.928 19.4469C154.174 19.6931 154.312 20.0269 154.312 20.375ZM154.312 16C154.312 16.3481 154.174 16.6819 153.928 16.9281C153.682 17.1742 153.348 17.3125 153 17.3125C152.652 17.3125 152.318 17.1742 152.072 16.9281C151.826 16.6819 151.688 16.3481 151.688 16C151.688 15.6519 151.826 15.3181 152.072 15.0719C152.318 14.8258 152.652 14.6875 153 14.6875C153.348 14.6875 153.682 14.8258 153.928 15.0719C154.174 15.3181 154.312 15.6519 154.312 16ZM154.312 11.625C154.312 11.9731 154.174 12.3069 153.928 12.5531C153.682 12.7992 153.348 12.9375 153 12.9375C152.652 12.9375 152.318 12.7992 152.072 12.5531C151.826 12.3069 151.688 11.9731 151.688 11.625C151.688 11.2769 151.826 10.9431 152.072 10.6969C152.318 10.4508 152.652 10.3125 153 10.3125C153.348 10.3125 153.682 10.4508 153.928 10.6969C154.174 10.9431 154.312 11.2769 154.312 11.625Z" fill="#898B96"/>
<path d="M15.3333 12H28.6666C29.1087 12 29.5326 12.1756 29.8451 12.4882C30.1577 12.8007 30.3333 13.2246 30.3333 13.6667V20.3333C30.3333 20.7754 30.1577 21.1993 29.8451 21.5118C29.5326 21.8244 29.1087 22 28.6666 22H15.3333C14.8913 22 14.4673 21.8244 14.1548 21.5118C13.8422 21.1993 13.6666 20.7754 13.6666 20.3333V13.6667C13.6666 13.2246 13.8422 12.8007 14.1548 12.4882C14.4673 12.1756 14.8913 12 15.3333 12V12Z" stroke="#898B96" stroke-linecap="round" stroke-linejoin="round"/>
<path d="M17.4166 19.9166H18.6666M16.1666 14.0833H17.4166H16.1666ZM18.6666 14.0833H17.4166H18.6666ZM17.4166 14.0833V19.9166V14.0833ZM17.4166 19.9166H16.1666H17.4166Z" stroke="#898B96" stroke-linecap="round" stroke-linejoin="round"/>
<path d="M50.15 20.09C49.67 20.09 49.2167 20.0333 48.79 19.92C48.37 19.8 48.0067 19.6267 47.7 19.4C47.5933 19.3267 47.53 19.24 47.51 19.14C47.49 19.04 47.5 18.9467 47.54 18.86C47.5867 18.7733 47.6533 18.7167 47.74 18.69C47.8267 18.6567 47.9267 18.6767 48.04 18.75C48.34 18.97 48.66 19.1267 49 19.22C49.34 19.3133 49.7233 19.36 50.15 19.36C50.75 19.36 51.1933 19.25 51.48 19.03C51.7733 18.8033 51.92 18.5067 51.92 18.14C51.92 17.8467 51.8133 17.6133 51.6 17.44C51.3933 17.2667 51.0433 17.13 50.55 17.03L49.51 16.82C48.8833 16.6867 48.4133 16.47 48.1 16.17C47.7933 15.8633 47.64 15.4567 47.64 14.95C47.64 14.53 47.7467 14.1633 47.96 13.85C48.18 13.5367 48.4833 13.2933 48.87 13.12C49.2567 12.9467 49.7033 12.86 50.21 12.86C50.63 12.86 51.02 12.92 51.38 13.04C51.7467 13.1533 52.0767 13.3267 52.37 13.56C52.4633 13.6333 52.5167 13.72 52.53 13.82C52.55 13.9133 52.5367 14 52.49 14.08C52.4433 14.16 52.3767 14.2133 52.29 14.24C52.2033 14.26 52.1 14.2333 51.98 14.16C51.7133 13.9533 51.4333 13.8067 51.14 13.72C50.8533 13.6333 50.54 13.59 50.2 13.59C49.6733 13.59 49.2533 13.7133 48.94 13.96C48.6267 14.2 48.47 14.52 48.47 14.92C48.47 15.24 48.5667 15.4933 48.76 15.68C48.96 15.8667 49.2833 16.0033 49.73 16.09L50.77 16.31C51.4433 16.45 51.94 16.6633 52.26 16.95C52.5867 17.23 52.75 17.6133 52.75 18.1C52.75 18.4933 52.6433 18.84 52.43 19.14C52.2233 19.44 51.9233 19.6733 51.53 19.84C51.1433 20.0067 50.6833 20.09 50.15 20.09ZM54.3123 20.07C54.0457 20.07 53.9123 19.93 53.9123 19.65V13.29C53.9123 13.0167 54.0457 12.88 54.3123 12.88C54.5857 12.88 54.7223 13.0167 54.7223 13.29V15.94C54.8823 15.6467 55.1057 15.4267 55.3923 15.28C55.6857 15.1267 56.0123 15.05 56.3723 15.05C57.5257 15.05 58.1023 15.69 58.1023 16.97V19.65C58.1023 19.93 57.969 20.07 57.7023 20.07C57.429 20.07 57.2923 19.93 57.2923 19.65V17.02C57.2923 16.5667 57.2023 16.2367 57.0223 16.03C56.849 15.8167 56.569 15.71 56.1823 15.71C55.7357 15.71 55.379 15.85 55.1123 16.13C54.8523 16.4033 54.7223 16.77 54.7223 17.23V19.65C54.7223 19.93 54.5857 20.07 54.3123 20.07ZM61.6159 20.09C61.1426 20.09 60.7326 19.9867 60.3859 19.78C60.0393 19.5733 59.7693 19.2833 59.5759 18.91C59.3893 18.53 59.2959 18.0833 59.2959 17.57C59.2959 17.0567 59.3893 16.6133 59.5759 16.24C59.7693 15.86 60.0393 15.5667 60.3859 15.36C60.7326 15.1533 61.1426 15.05 61.6159 15.05C62.0826 15.05 62.4893 15.1533 62.8359 15.36C63.1893 15.5667 63.4593 15.86 63.6459 16.24C63.8393 16.6133 63.9359 17.0567 63.9359 17.57C63.9359 18.0833 63.8393 18.53 63.6459 18.91C63.4593 19.2833 63.1893 19.5733 62.8359 19.78C62.4893 19.9867 62.0826 20.09 61.6159 20.09ZM61.6159 19.44C62.0693 19.44 62.4326 19.28 62.7059 18.96C62.9793 18.6333 63.1159 18.17 63.1159 17.57C63.1159 16.9633 62.9793 16.5 62.7059 16.18C62.4326 15.86 62.0693 15.7 61.6159 15.7C61.1559 15.7 60.7893 15.86 60.5159 16.18C60.2493 16.5 60.1159 16.9633 60.1159 17.57C60.1159 18.17 60.2493 18.6333 60.5159 18.96C60.7893 19.28 61.1559 19.44 61.6159 19.44ZM65.5626 20.07C65.2892 20.07 65.1526 19.93 65.1526 19.65V15.48C65.1526 15.2067 65.2826 15.07 65.5426 15.07C65.8092 15.07 65.9426 15.2067 65.9426 15.48V16.01C66.0759 15.7033 66.2826 15.47 66.5626 15.31C66.8426 15.1433 67.1759 15.0533 67.5626 15.04C67.7759 15.02 67.8892 15.1267 67.9026 15.36C67.9226 15.5933 67.8026 15.7233 67.5426 15.75L67.3826 15.77C66.9226 15.81 66.5726 15.9567 66.3326 16.21C66.0926 16.4567 65.9726 16.7967 65.9726 17.23V19.65C65.9726 19.93 65.8359 20.07 65.5626 20.07ZM70.9502 20.09C70.3769 20.09 69.9469 19.94 69.6602 19.64C69.3736 19.3333 69.2302 18.8933 69.2302 18.32V15.77H68.5602C68.3269 15.77 68.2102 15.6633 68.2102 15.45C68.2102 15.2433 68.3269 15.14 68.5602 15.14H69.2302V13.99C69.2302 13.7167 69.3669 13.58 69.6402 13.58C69.9069 13.58 70.0402 13.7167 70.0402 13.99V15.14H71.3002C71.5336 15.14 71.6502 15.2433 71.6502 15.45C71.6502 15.6633 71.5336 15.77 71.3002 15.77H70.0402V18.24C70.0402 18.62 70.1202 18.91 70.2802 19.11C70.4402 19.3033 70.7002 19.4 71.0602 19.4C71.1869 19.4 71.2936 19.3867 71.3802 19.36C71.4669 19.3333 71.5436 19.32 71.6102 19.32C71.6702 19.3133 71.7202 19.3333 71.7602 19.38C71.8002 19.4267 71.8202 19.5067 71.8202 19.62C71.8202 19.7 71.8036 19.7733 71.7702 19.84C71.7436 19.9067 71.6936 19.9533 71.6202 19.98C71.5402 20.0067 71.4336 20.03 71.3002 20.05C71.1736 20.0767 71.0569 20.09 70.9502 20.09ZM77.3245 20.07C77.0511 20.07 76.9145 19.9267 76.9145 19.64V13.66H74.6645C74.4111 13.66 74.2845 13.54 74.2845 13.3C74.2845 13.0667 74.4111 12.95 74.6645 12.95H79.9945C80.2478 12.95 80.3745 13.0667 80.3745 13.3C80.3745 13.54 80.2478 13.66 79.9945 13.66H77.7445V19.64C77.7445 19.9267 77.6045 20.07 77.3245 20.07ZM82.5184 20.09C81.7517 20.09 81.145 19.8667 80.6984 19.42C80.2517 18.9667 80.0284 18.3533 80.0284 17.58C80.0284 17.08 80.1284 16.64 80.3284 16.26C80.5284 15.8733 80.8017 15.5767 81.1484 15.37C81.5017 15.1567 81.9084 15.05 82.3684 15.05C83.0284 15.05 83.545 15.2633 83.9184 15.69C84.2917 16.11 84.4784 16.69 84.4784 17.43C84.4784 17.6367 84.3617 17.74 84.1284 17.74H80.8184C80.845 18.2933 81.005 18.7167 81.2984 19.01C81.5917 19.2967 81.9984 19.44 82.5184 19.44C82.7384 19.44 82.9617 19.4133 83.1884 19.36C83.415 19.3 83.635 19.1967 83.8484 19.05C84.0017 18.95 84.1284 18.93 84.2284 18.99C84.335 19.05 84.3884 19.1433 84.3884 19.27C84.395 19.39 84.3284 19.4967 84.1884 19.59C83.9684 19.75 83.705 19.8733 83.3984 19.96C83.0984 20.0467 82.805 20.09 82.5184 20.09ZM82.3884 15.65C81.9284 15.65 81.565 15.7933 81.2984 16.08C81.0317 16.3667 80.875 16.7433 80.8284 17.21H83.7784C83.7584 16.7167 83.6284 16.3333 83.3884 16.06C83.155 15.7867 82.8217 15.65 82.3884 15.65ZM85.6316 20.06C85.4982 20.06 85.3982 20.0033 85.3316 19.89C85.2649 19.77 85.2949 19.6333 85.4216 19.48L87.0116 17.49L85.5316 15.65C85.4049 15.4967 85.3749 15.3633 85.4416 15.25C85.5082 15.13 85.6082 15.07 85.7416 15.07C85.8482 15.07 85.9349 15.09 86.0016 15.13C86.0682 15.1633 86.1316 15.22 86.1916 15.3L87.4816 16.93L88.7816 15.3C88.8416 15.22 88.9049 15.1633 88.9716 15.13C89.0382 15.09 89.1216 15.07 89.2216 15.07C89.3616 15.07 89.4616 15.13 89.5216 15.25C89.5882 15.3633 89.5582 15.5 89.4316 15.66L87.9516 17.49L89.5516 19.48C89.6716 19.6333 89.6982 19.77 89.6316 19.89C89.5649 20.0033 89.4616 20.06 89.3216 20.06C89.1416 20.06 88.9916 19.9833 88.8716 19.83L87.4716 18.07L86.0816 19.83C86.0216 19.9033 85.9582 19.96 85.8916 20C85.8249 20.04 85.7382 20.06 85.6316 20.06ZM92.8155 20.09C92.2421 20.09 91.8121 19.94 91.5255 19.64C91.2388 19.3333 91.0955 18.8933 91.0955 18.32V15.77H90.4255C90.1921 15.77 90.0755 15.6633 90.0755 15.45C90.0755 15.2433 90.1921 15.14 90.4255 15.14H91.0955V13.99C91.0955 13.7167 91.2321 13.58 91.5055 13.58C91.7721 13.58 91.9055 13.7167 91.9055 13.99V15.14H93.1655C93.3988 15.14 93.5155 15.2433 93.5155 15.45C93.5155 15.6633 93.3988 15.77 93.1655 15.77H91.9055V18.24C91.9055 18.62 91.9855 18.91 92.1455 19.11C92.3055 19.3033 92.5655 19.4 92.9255 19.4C93.0521 19.4 93.1588 19.3867 93.2455 19.36C93.3321 19.3333 93.4088 19.32 93.4755 19.32C93.5355 19.3133 93.5855 19.3333 93.6255 19.38C93.6655 19.4267 93.6855 19.5067 93.6855 19.62C93.6855 19.7 93.6688 19.7733 93.6355 19.84C93.6088 19.9067 93.5588 19.9533 93.4855 19.98C93.4055 20.0067 93.2988 20.03 93.1655 20.05C93.0388 20.0767 92.9221 20.09 92.8155 20.09Z" fill="#898B96"/>
</svg>
